<?xml version="1.0" encoding="utf-8"?><svg xmlns="http://www.w3.org/2000/svg" xmlns:xlink="http://www.w3.org/1999/xlink"><symbol id="about-icon-play" viewBox="0 0 190 190"><defs><style>.aacls-1{fill:#fff}</style></defs><title>PLAY</title><path class="aacls-1" d="M99.85 24.31a74 74 0 1 0 74.06 74 74 74 0 0 0-74.06-74zm-14 108.45V67.3l45.34 31.4z" transform="translate(-4.85 -3.33)"/><path class="aacls-1" d="M99.85 193.33a95 95 0 1 1 95-95 95.11 95.11 0 0 1-95 95zm0-186a91 91 0 1 0 91 91 91.1 91.1 0 0 0-91-91z" transform="translate(-4.85 -3.33)"/></symbol><symbol id="about-learn-more" viewBox="0 0 15.7 9"><style>.abst0{fill:#231f20}</style><path fill="#bfbfbf" class="abst0" d="M7.7 8.7L.1 1.1.8.4l6.9 6.8 7.1-7 .7.7z"/></symbol><symbol viewBox="0 0 67 61" id="add-data-clip"><title>Page 1</title><path d="M37.253 59.757L7.712 30.217C4.148 26.651-2.546 17.05 7.483 7.02c10.03-10.03 20.376-1.913 22.453.164L59.88 37.13c7.73 7.73 5.989 14.743 1.984 18.748-9.157 9.157-18.506-2.227-18.506-2.227L18.242 28.535c-2.977-2.977-2.945-7.278-.11-10.114 3.901-3.9 7.915-1.461 9.9.523l22.593 22.594" stroke-width="3" fill="none" fill-rule="evenodd"/></symbol><symbol viewBox="0 0 26 27" id="appointment-calendar-calendar"><title>Group 10</title><defs><rect id="ada" y="4" width="26" height="17" rx="3"/><rect id="adb" x="4" width="3" height="9" rx="1.5"/><rect id="adc" y="10" width="26" height="17" rx="3"/><rect id="add" x="19" width="3" height="9" rx="1.5"/></defs><g fill="none" fill-rule="evenodd"><use fill="#000" xlink:href="#ada"/><rect x=".5" y="4.5" width="25" height="16" rx="3"/><use fill="#000" xlink:href="#adb"/><rect x="4.5" y=".5" width="2" height="8" rx="1"/><use fill="#FFF" xlink:href="#adc"/><rect x=".5" y="10.5" width="25" height="16" rx="3"/><g><use fill="#000" xlink:href="#add"/><rect x="19.5" y=".5" width="2" height="8" rx="1"/></g><text font-family="ProximaNova-Semibold, Proxima Nova" font-size="14" font-weight="500" letter-spacing=".664" fill="#000"><tspan x="6" y="23">31</tspan></text></g></symbol><symbol viewBox="0 0 26 27" id="appointment-calendar-calendar"><title>Group 10</title><defs><rect id="aea" y="4" width="26" height="17" rx="3"/><rect id="aeb" x="4" width="3" height="9" rx="1.5"/><rect id="aec" y="10" width="26" height="17" rx="3"/><rect id="aed" x="19" width="3" height="9" rx="1.5"/></defs><g fill="none" fill-rule="evenodd"><use fill="#000" xlink:href="#aea"/><rect x=".5" y="4.5" width="25" height="16" rx="3"/><use fill="#000" xlink:href="#aeb"/><rect x="4.5" y=".5" width="2" height="8" rx="1"/><use fill="#FFF" xlink:href="#aec"/><rect x=".5" y="10.5" width="25" height="16" rx="3"/><g><use fill="#000" xlink:href="#aed"/><rect x="19.5" y=".5" width="2" height="8" rx="1"/></g><text font-family="ProximaNova-Semibold, Proxima Nova" font-size="14" font-weight="500" letter-spacing=".664" fill="#000"><tspan x="6" y="23">31</tspan></text></g></symbol><symbol viewBox="0 0 21 20" id="appointment-calendar-check-mark"><title>Path 6 Copy</title><path d="M0 10.75L2.978 7.5c3.307 4.083 4.92 6 4.838 5.75C7.733 13 10.959 8.583 17.492 0c2.565 1.75 3.724 2.667 3.475 2.75-.249.083-4.633 5.833-13.151 17.25L0 10.75z" fill="#16398D" fill-rule="evenodd"/></symbol><symbol viewBox="0 0 21 20" id="appointment-calendar-check-mark"><title>Path 6 Copy</title><path d="M0 10.75L2.978 7.5c3.307 4.083 4.92 6 4.838 5.75C7.733 13 10.959 8.583 17.492 0c2.565 1.75 3.724 2.667 3.475 2.75-.249.083-4.633 5.833-13.151 17.25L0 10.75z" fill="#16398D" fill-rule="evenodd"/></symbol><symbol viewBox="0 0 21 20" id="ask-question-check-mark"><title>Path 6 Copy</title><path d="M0 10.75L2.978 7.5c3.307 4.083 4.92 6 4.838 5.75C7.733 13 10.959 8.583 17.492 0c2.565 1.75 3.724 2.667 3.475 2.75-.249.083-4.633 5.833-13.151 17.25L0 10.75z" fill="#16398D" fill-rule="evenodd"/></symbol><symbol viewBox="0 0 47.25 46.863" id="direction-grid"><path d="M19.25 0H28v8.75h-8.75zM0 0h8.75v8.75H0zm38.5 0h8.75v8.75H38.5zM19.25 19.057H28v8.75h-8.75zm-19.25 0h8.75v8.75H0zm38.5 0h8.75v8.75H38.5zM19.25 38.113H28v8.75h-8.75zm-19.25 0h8.75v8.75H0zm38.5 0h8.75v8.75H38.5z" fill="#C7CBD8"/></symbol><symbol viewBox="0 0 16 22" id="directions-icon-play"><path fill-rule="evenodd" fill="#fff" d="M.7-.012L15.705 11 .7 22.004V-.012z"/></symbol><symbol id="directions-pochki" viewBox="0 0 27.8 20.8"><style>.akst0{fill:#7ecbd7}</style><path class="akst0" d="M27.5 7.1l-.1-.3C27 4.2 25.1 1.5 23 .5c-1.4-.7-2.9-.7-4.2 0C16.2 2 16.2 4 16.5 5.1c.3.9.8 1.8 1.5 2.5-1.3.3-2.7.9-4.1 1.7-1.4-.7-2.7-1.3-4.1-1.7.7-.7 1.2-1.6 1.5-2.5C11.5 4 11.6 2 9 .5 7.7-.2 6.3-.2 4.8.5 2.6 1.5.8 4.2.3 6.8v.3c-.3 1.7-.8 4.4 1.2 8.5 1.1 2.1 3 3.6 5.1 3.9h.7c1.3 0 2.4-.5 3.2-1.3l.3-.3c0 .8.1 1.7.1 2.9h2c0-4.5-.2-6-1.3-7.8-.8-1.4-2.2-1.9-2.8-2.1-.9-.3-1.5-.3-1.6-.3v2s.4 0 .9.2c.6.2 1.3.5 1.7 1.2.2.5.2 1.8-.8 2.9-.5.5-1.3.8-2.2.6-1.5-.2-2.8-1.2-3.5-2.8C1.6 11.2 2 9 2.3 7.4l.1-.3c.3-2 1.8-4.1 3.4-4.8.8-.4 1.6-.4 2.3 0 1.5.8 1.4 1.7 1.4 2-.2 1.4-1.8 2.9-2.3 3l-.1 1 .1 1h.1c2 0 4.4.9 6.6 2.5 2.2-1.6 4.6-2.5 6.6-2.5h.2l-.1-2c-.5-.1-2.1-1.6-2.3-3 0-.3-.1-1.2 1.4-2 .7-.4 1.5-.4 2.3 0 1.6.8 3.1 2.9 3.4 4.8l.1.3c.3 1.5.7 3.8-1.1 7.3-.8 1.5-2.1 2.6-3.5 2.8-.9.1-1.7-.1-2.2-.6-1-1.1-1-2.3-.7-2.9.4-.7 1.1-1 1.8-1.2.5-.2.9-.2.9-.2v-2c-.1 0-.7 0-1.6.3-.6.2-2 .7-2.8 2.1-1.1 1.8-1.3 3.3-1.3 7.8h2c0-1.2 0-2.2.1-2.9l.3.3c.8.9 1.9 1.3 3.2 1.3h.7c2.1-.3 4-1.7 5.1-3.9 1.9-4.1 1.4-6.8 1.1-8.5zm-20.3.2zm13.4 0z"/></symbol><symbol id="directions-stetoskop" viewBox="0 0 24.1 23.8"><style>.alst0{fill:#7ecbd7}</style><path class="alst0" d="M24 4.2c-.3-2.8-2.3-4.3-6-4.2h-.6l-.1 2h.7c2.6-.1 3.8.7 4 2.4.2 1.5-.4 2.3-2.7 3.9-.3.2-.5.3-.8.5-1.5 1-3 2-4 3.6-1-1.7-2.5-2.7-4-3.6-.2-.2-.5-.3-.8-.5C7.5 6.8 7 6 7.1 4.4c.2-1.8 1.4-2.5 4-2.4h.7l-.1-2h-.6c-3.6 0-5.7 1.4-6 4.2-.3 2.9 1.5 4.3 3.6 5.7.3.2.5.3.8.5 2.2 1.4 3.8 2.5 4.1 5.2v4.8c0 .2-.2.6-.3.8-.2.2-.5.5-.7.5-.2.1-.5 0-.7 0-.2-.1-.6-.4-.7-.5-.1-.1-.2-.6-.2-.9V17c0-1.9-1.5-3.5-3.3-3.5H5.5c-.1-.4-.4-.7-.7-1-1.1-1.1-3-1.1-4 0-.5.5-.8 1.3-.8 2 0 .8.3 1.5.8 2 .6.6 1.3.8 2 .8s1.5-.3 2-.8c.3-.3.5-.7.7-1h2.1c.8.1 1.4.7 1.4 1.5v3.3c0 .7.3 1.5.6 2s1 1 1.6 1.2c.3.1.7.2 1.2.2.3 0 .6 0 .9-.1.6-.2 1.3-.7 1.7-1.1.4-.5.7-1.4.7-2v-4.8c.3-2.8 1.9-3.8 4.1-5.3.3-.2.5-.3.8-.5 2-1.4 3.7-2.8 3.4-5.7zm-20.5 11c-.3.3-.9.3-1.2 0-.2-.2-.3-.4-.3-.6s.1-.4.3-.6c.2-.2.4-.3.6-.3s.4.1.6.3c.3.3.3.8 0 1.2z"/></symbol><symbol id="doctor-card-learn-more" viewBox="0 0 15.7 9"><style>.amst0{fill:#231f20}</style><path fill="#bfbfbf" class="amst0" d="M7.7 8.7L.1 1.1.8.4l6.9 6.8 7.1-7 .7.7z"/></symbol><symbol viewBox="0 0 117.379 117.378" id="doctors-list-slider-button"><path fill="#E7E7E7" d="M58.689 117.378C26.328 117.378 0 91.05 0 58.688S26.328 0 58.689 0s58.689 26.327 58.689 58.688-26.327 58.69-58.689 58.69zm0-114.544c-30.799 0-55.855 25.057-55.855 55.854 0 30.799 25.057 55.855 55.855 55.855s55.855-25.057 55.855-55.855c.001-30.797-25.056-55.854-55.855-55.854z"/><path fill="#70839E" d="M52.875 82.736l-4.01-4.007 20.039-20.041L48.865 38.65l4.01-4.008 24.047 24.046z"/></symbol><symbol viewBox="0 0 117.379 117.378" id="doctors-list-slider-button-hover"><path fill="#fff" d="M52.875 82.736l-4.01-4.007 20.039-20.041L48.865 38.65l4.01-4.008 24.047 24.046z"/></symbol><symbol viewBox="0 0 72.666 66.125" id="doctors-list-speech-bubble"><path fill="#FFF" d="M66.666 0H6C2.701 0 0 2.7 0 6v42.25c0 3.3 2.701 6 6 6h36.801l11.281 11.875V54.25h12.584c3.301 0 6-2.7 6-6V6c0-3.3-2.699-6-6-6z"/></symbol><symbol viewBox="0 0 107 19" id="footer-creator"><defs><style>.aqcls-1{fill:#dcdcdc;fill-rule:evenodd}</style></defs><path class="aqcls-1" d="M39.67 14l5.16 5L55.87 5.5 50.94.3zm22.9-14L51.38 14l5.23 5L67.85 5.3h10.82l-1.08 1.5h-8.78l-5.82 7.3 4.82 4.9h8.78l3.85-5.4h-9.26l1.24-1.7h9.03l5.38-6.6-4.5-5.3H62.57zM11.12 0L6.7 5.4h10.39L16 6.7H5.58L0 13.5 4.95 19l5.37-6.6h8.58l6.06-7.5L20.95 0h-9.83zm16.31 13.3l6.42-7.8 2.36-.1-6.4 7.9h-2.38zM30.78 0L19.85 13.5l4.68 5.5h8.78L44.38 5.6 40.12 0h-9.34zm62.2 0l-4.26 5.3h10.77l-1.24 1.5H87.8l-4.76 5.7-.89 1 4.74 5.5 3.85-5 3.44 5h8.25l-5.11-6.6h3.71L107 4.7 103.05 0H92.98z"/></symbol><symbol viewBox="0 0 121.75 25.47" id="footer-creator_likee"><defs><style>.arcls-1{fill:#dcdcdc;fill-rule:evenodd}</style></defs><path class="arcls-1" d="M12.828 10.08H9.467l-.512 5.91a24.311 24.311 0 0 1-.94 5.31 6.183 6.183 0 0 1-4.641 3.93 10.347 10.347 0 0 1-1.339.25l-2.05-3.73a3.639 3.639 0 0 0 3.56-4.01c.427-5.37.768-9.24.968-11.58h13.924v18.61h-5.581c0-1.61 0-4.06-.028-7.31v-7.38zm26.938 14.69l-.911-2.09h-6.521l-.94 2.09h-5.353L35.409 5.7h.655l9.169 19.07h-5.467zm-4.186-9.35l-1.651 3.7h3.36l-1.595-3.7h-.114zm34.655 9.35h-5.552v-9.43h-.114L53.406 25.2h-.626V6.16h5.581v9.38h.114L69.58 5.68h.655v19.09zM59.785 0a2.4 2.4 0 0 0 2.563 2.4A2.477 2.477 0 0 0 64.74 0h2.249a6.062 6.062 0 0 1-1.31 3.5 4.107 4.107 0 0 1-3.445 1.47c-3.047 0-4.613-2.15-4.727-4.97h2.278zm25.116 6.16v8.41l5.609-8.41h5.952l-6.35 8.98 6.663 9.63h-6.151l-5.723-9.04v9.04h-5.61V6.16h5.61zm36.849 18.61h-5.552v-9.43h-.114l-11.163 9.86h-.626V6.16h5.581v9.38h.114l11.1-9.86h.66v19.09z"/></symbol><symbol viewBox="0 0 71 71" id="footer-facebook"><path d="M65 0H6C2.7 0 0 2.7 0 6v59c0 3.3 2.7 6 6 6h31.617V43.282H28.29V32.48h9.327v-7.968c0-9.245 5.646-14.279 13.894-14.279 3.951 0 7.347.294 8.336.426v9.661l-5.72.003c-4.485 0-5.354 2.132-5.354 5.259v6.898H59.47l-1.393 10.802h-9.305V71H65c3.3 0 6-2.7 6-6V6c0-3.3-2.7-6-6-6z"/></symbol><symbol id="footer-insta" viewBox="0 0 44.13 43.59"><defs><style/></defs><title>Insta</title><path class="atcls-1" d="M30.93 5.33H14.52a8.59 8.59 0 0 0-8.58 8.58v16.41a8.59 8.59 0 0 0 8.58 8.58h16.41a8.59 8.59 0 0 0 8.58-8.58v-16.4a8.59 8.59 0 0 0-8.58-8.59zm5.58 25a5.59 5.59 0 0 1-5.58 5.58H14.52a5.59 5.59 0 0 1-5.58-5.58V13.92a5.59 5.59 0 0 1 5.58-5.58h16.41a5.59 5.59 0 0 1 5.58 5.58v16.4zM28.54 15a9.23 9.23 0 1 0-5.83 16.39 9.38 9.38 0 0 0 1-.05A9.23 9.23 0 0 0 28.54 15zm-.83 11.17a6.43 6.43 0 1 1-5.65-10.44 6.48 6.48 0 0 1 .68 0 6.43 6.43 0 0 1 6.38 5.76 6.38 6.38 0 0 1-1.41 4.68zm4.66-15.7a2 2 0 1 0 1 2.62 2 2 0 0 0-.99-2.62z"/></symbol><symbol viewBox="0 0 27 27" id="footer-ok"><title>icon</title><path d="M23.25 0C25.35 0 27 1.65 27 3.75v19.5c0 2.1-1.65 3.75-3.75 3.75H3.75C1.65 27 0 25.35 0 23.25V3.75C0 1.65 1.65 0 3.75 0h19.5zM17.1 14.325c-2.175 1.35-5.025 1.35-7.2 0-.75-.45-1.725-.225-2.175.525-.45.75-.225 1.725.525 2.175.975.6 2.025 1.05 3.075 1.275l-3 3c-.6.6-.6 1.575 0 2.25.3.3.675.45 1.125.45.375 0 .825-.15 1.125-.45l2.925-2.925 2.925 2.925c.6.6 1.575.6 2.25 0 .6-.6.6-1.575 0-2.25l-3-3a8.618 8.618 0 0 0 3.075-1.275c.75-.45.975-1.425.525-2.175-.45-.75-1.425-.975-2.175-.525zM13.5 3a5.218 5.218 0 0 0-5.25 5.25 5.218 5.218 0 0 0 5.25 5.25 5.218 5.218 0 0 0 5.25-5.25A5.218 5.218 0 0 0 13.5 3zm0 3c1.275 0 2.25.975 2.25 2.25s-.975 2.25-2.25 2.25-2.25-.975-2.25-2.25S12.225 6 13.5 6z"/></symbol><symbol viewBox="219.327 223.556 73.795 66.008" id="footer-telegram"><path d="M278.735 289.564c-.576 0-1.149-.17-1.64-.504l-18.556-12.586-9.951 7.16a2.923 2.923 0 0 1-4.531-1.625l-4.997-18.938-17.854-6.828a2.92 2.92 0 0 1-.037-5.442l67.891-27.014a2.943 2.943 0 0 1 1.317-.228 2.907 2.907 0 0 1 2.025.993 2.918 2.918 0 0 1 .663 2.509l-11.459 60.126a2.927 2.927 0 0 1-2.871 2.377zm-18.566-19.044l16.527 11.211 8.917-46.786-32.205 30.989 6.683 4.533.078.053zm-13.76-2.493l2.213 8.385 4.769-3.43-6.243-4.236a2.905 2.905 0 0 1-.739-.719zm-16.124-14.565l12.26 4.686a2.921 2.921 0 0 1 1.781 1.984l1.555 5.893c.071-.68.38-1.32.88-1.801l30.688-29.528-47.164 18.766z"/></symbol><symbol viewBox="0 0 71 71" id="footer-vk"><path d="M65 0H6C2.7 0 0 2.7 0 6v59c0 3.3 2.7 6 6 6h59c3.3 0 6-2.7 6-6V6c0-3.3-2.7-6-6-6zm-9.783 39.114c.334.414 1.133 1.223 2.395 2.426h.029l.029.03.029.028.061.06c2.779 2.583 4.662 4.761 5.648 6.536.059.099.123.222.191.369.07.148.139.41.209.784.068.375.064.711-.016 1.006-.078.296-.324.567-.738.813s-.996.37-1.746.37l-7.57.118c-.475.098-1.025.049-1.656-.148-.631-.196-1.143-.414-1.539-.65l-.592-.355c-.59-.414-1.279-1.045-2.068-1.893s-1.465-1.611-2.025-2.292a9.825 9.825 0 0 0-1.805-1.715c-.643-.464-1.199-.617-1.672-.459-.059.021-.139.054-.236.104s-.268.192-.504.429a3.84 3.84 0 0 0-.635.872c-.188.346-.355.858-.504 1.538a9.844 9.844 0 0 0-.191 2.292c0 .295-.035.566-.104.812s-.143.429-.223.547l-.117.148c-.355.374-.877.591-1.568.651h-3.4c-1.4.078-2.838-.085-4.318-.488-1.479-.404-2.775-.928-3.889-1.568s-2.129-1.291-3.047-1.952c-.916-.66-1.611-1.228-2.084-1.7l-.74-.71a18.109 18.109 0 0 1-.812-.887c-.346-.395-1.051-1.291-2.115-2.691-1.064-1.399-2.109-2.889-3.135-4.466s-2.232-3.657-3.623-6.24a97.816 97.816 0 0 1-3.859-8.044c-.119-.315-.178-.582-.178-.799s.029-.375.09-.474l.117-.178c.297-.374.857-.562 1.688-.562l8.104-.059c.236.039.463.103.68.191.217.09.375.173.473.252l.148.089c.314.217.553.532.709.946.395.985.848 2.006 1.361 3.062a69.537 69.537 0 0 0 1.213 2.41l.473.857a34.448 34.448 0 0 0 1.656 3.076c.531.867 1.01 1.543 1.434 2.025.424.483.834.862 1.229 1.139s.729.414 1.004.414c.277 0 .543-.05.799-.147a.515.515 0 0 0 .148-.148c.059-.078.178-.295.355-.65.176-.354.311-.817.398-1.39.09-.572.182-1.37.281-2.396.098-1.024.098-2.257 0-3.696a13.802 13.802 0 0 0-.266-2.158c-.139-.65-.277-1.104-.414-1.36l-.179-.355c-.494-.671-1.332-1.094-2.514-1.271-.256-.039-.207-.276.148-.71.334-.374.709-.67 1.123-.887 1.045-.513 3.4-.75 7.068-.71 1.617.02 2.947.147 3.992.384.395.1.725.232.992.399.266.168.467.404.605.71s.242.621.311.946c.068.326.104.774.104 1.346 0 .572-.01 1.114-.029 1.627-.021.513-.045 1.207-.074 2.085-.029.877-.045 1.69-.045 2.44 0 .217-.008.631-.029 1.242-.02.61-.025 1.085-.016 1.42.01.334.045.733.104 1.197.061.463.172.848.342 1.153.166.306.389.548.664.725.158.039.326.079.504.118.176.04.434-.068.768-.325.336-.257.711-.597 1.125-1.021.414-.423.926-1.084 1.537-1.98a64.47 64.47 0 0 0 2.012-3.18 48.124 48.124 0 0 0 3.164-6.654c.08-.197.178-.37.295-.518.119-.148.227-.251.326-.311l.117-.089.148-.074.385-.089c.256-.06.453-.063.592-.015l8.518-.059c.77-.099 1.398-.074 1.893.073.492.148.799.311.916.488l.178.295c.453 1.262-1.025 4.16-4.438 8.695-.473.631-1.113 1.469-1.922 2.514-1.537 1.973-2.426 3.263-2.662 3.874-.335.811-.198 1.609.415 2.398z"/></symbol><symbol id="footer-youtube" viewBox="0 0 138 138"><style>.axst0{fill:#1e3a8b}</style><path class="axst0" d="M95.9 13.7h-52c-15 0-27.2 12.2-27.2 27.2v52c0 15 12.2 27.2 27.2 27.2h52c15 0 27.2-12.2 27.2-27.2v-52c0-14.9-12.2-27.2-27.2-27.2zm9 58.8c0 6.4-5.2 18.1-11.6 18.1H46.6c-6.4 0-11.6-11-11.6-17.4V61.5c0-6.4 5.2-18.2 11.6-18.2h46.7c6.4 0 11.6 11.7 11.6 18.1v11.1z"/><path class="axst0" d="M63.6 54.2c-.2.8 0 25.5 0 25.5s20-13 18.7-12.8-18.7-12.7-18.7-12.7z"/></symbol><symbol viewBox="0 0 29 28" id="header-area-icon"><title>Group 11</title><g fill-rule="evenodd"><path d="M28.895 11C27.1 4.68 21.311.052 14.448.052 7.584.052 1.796 4.68 0 11h28.895zm-5.773-22c0 4.773-3.86 8.643-8.622 8.643-4.762 0-8.622-3.87-8.622-8.643 0-4.773 3.86-8.643 8.622-8.643 4.762 0 8.622 3.87 8.622 8.643" mask="url(#b)" transform="translate(0 17)"/><ellipse cx="13.5" cy="7" rx="7.5" ry="7"/></g></symbol><symbol viewBox="0 0 36.207 25.654" id="header-burger"><path d="M2.681 4.76h32.421M2.681 12.911h32.421M2.681 21.063h32.421" fill="none" stroke-width="2.126" stroke-miterlimit="10"/></symbol><symbol viewBox="0 0 68.135 65.211" id="header-loop-search"><path d="M68.135 61.803L53.068 46.735a29.228 29.228 0 0 0 5.693-17.355C58.762 13.18 45.582 0 29.381 0S0 13.18 0 29.38s13.18 29.38 29.381 29.38c7.977 0 15.217-3.2 20.518-8.378l14.828 14.829 3.408-3.408zm-38.754-7.862c-13.543 0-24.562-11.019-24.562-24.562S15.838 4.818 29.381 4.818 53.943 15.837 53.943 29.38 42.924 53.941 29.381 53.941z"/></symbol><symbol viewBox="0 0 57 57" id="header-mobile-tel"><defs><style>.bbcls-1{fill:none;stroke:#bbbac4;stroke-width:2px}.bbcls-2{fill:#ef2626}</style></defs><title>header-mobile-tel</title><g id="bbСлой_2" data-name="Слой 2"><g id="bbСлой_1-2" data-name="Слой 1"><path class="bbcls-1" d="M28.5 56A27.5 27.5 0 1 1 56 28.5 27.5 27.5 0 0 1 28.5 56z"/><path class="bbcls-2" d="M22.78 20.13a2 2 0 0 1-.34 1.92c-.75 1.11-1.44 2.16-1.44 2.16a2.16 2.16 0 0 0 .51 2.27 86 86 0 0 0 6.8 7c1.66 1.28 2.63 1.52 3.38.93s1.71-1.28 1.71-1.28a1.81 1.81 0 0 1 2.17 0c1.2.82 6.17 4 6.17 4s.86.58-.34 2.56a8.57 8.57 0 0 1-1.89 2.45s-1.4 2-6.17 0c-6.06-2.56-11.66-6.94-17.09-15.56-3.44-5.47-3.2-8.45-3.2-8.45s-.06-2.68 1.83-3.61 2.51-1.34 2.51-1.34.71-.31.92 0z"/></g></g></symbol><symbol viewBox="0 0 31 31" id="header-question"><title>Group 22</title><text font-family="Helvetica" font-size="21" letter-spacing=".75" transform="translate(1 1)" fill="none" fill-rule="evenodd"><tspan x="8.285" y="22">?</tspan></text></symbol><symbol id="header-tel" viewBox="0 0 57 57"><style>.st0{fill:#1206ff;stroke:#bbbac4;stroke-width:2}.bdst1{fill:#ef0050}</style><path class="bdst1" d="M22.8 20.1s.4.8-.3 1.9c-.7 1.1-1.5 2.2-1.5 2.2s-.5 1.1.5 2.3c1 1.2 5.1 5.7 6.8 7 1.7 1.3 2.6 1.5 3.4.9.7-.6 1.7-1.3 1.7-1.3s1-.8 2.2 0c1.2.8 6.2 4 6.2 4s.9.6-.3 2.6-1.9 2.4-1.9 2.4-1.4 2-6.2 0c-6.1-2.6-11.7-6.9-17.1-15.6-3.4-5.5-3.2-8.5-3.2-8.5s-.1-2.7 1.8-3.6c1.9-.9 2.5-1.3 2.5-1.3s.7-.3.9 0l4.5 7z"/></symbol><symbol viewBox="0 0 328 766" id="health-map-man"><title>Fill 1</title><path d="M190.775 85.798c-2.285 9.101-4.629 17.851-4.167 27.087.156 3.098 1.076 5.353 3.88 6.661 7.561 3.528 15.082 7.152 22.733 10.476 9.62 4.178 19.51 7.766 28.987 12.233 7.11 3.351 12.901 8.481 15.578 16.337 2.165 6.355 4.681 12.606 6.51 19.054 1.813 6.395 1.54 13.11-.205 19.405-2.9 10.461-2.41 20.77-.35 31.19 2.78 14.067 4.198 28.21 2.482 42.547-1.013 8.466 1.072 16.042 6.172 23.005 7.478 10.211 9.74 22.168 10.59 34.488.997 14.392 2.226 28.672 7.47 42.4 2.26 5.911 2.945 12.463 3.983 18.785.513 3.13 1.64 5.317 4.303 7.235 4.442 3.197 8.577 6.843 12.647 10.516 1.303 1.176 2.215 2.941 2.915 4.601 2.467 5.855 5.31 11.415 9.956 15.926 1.203 1.168 2.107 2.772 2.777 4.335 1.358 3.172-.428 5.513-3.595 4.273-3.305-1.294-6.217-3.657-9.18-5.725-1.702-1.188-3.166-2.718-4.737-4.094l-.948.345c0 1.44-.07 2.884.012 4.32.646 11.322 1.152 22.644-1.183 33.853-.433 2.081-1.21 4.1-1.956 6.098-.27.73-.842 1.813-1.4 1.896-3.297.49-5.217 3.297-7.997 4.464-1.264.532-3.125-.36-5.307-.7-3.759 2.522-6.067-.495-8.684-8.21-3.688 2.243-4.585-.97-5.605-3.173-4.952-10.693-8.85-21.764-9.372-33.646-.35-8.02-.443-16.112.238-24.096.48-5.608-.458-10.448-3.385-15.093-.7-1.11-1.549-2.35-1.64-3.583-.66-8.846-6.069-15.662-9.78-23.179-6.074-12.303-12.974-24.287-15.803-37.884-1.428-6.867-1.388-14.057-3.03-20.856-1.453-6.018-3.027-11.807-1.524-17.999.184-.755.055-1.656-.157-2.426-2.439-8.863-4.579-17.76-3.866-27.083-1.114 4.94-2.5 9.84-3.237 14.836-.433 2.938.04 6.042.332 9.05.676 6.97 2.057 13.925 2.091 20.892.035 7.096 1.016 13.956 2.113 20.91 1.077 6.831 1.288 13.801 1.866 20.712 1.182 14.128 2.378 28.255 3.527 42.385 1.582 19.455 2.405 38.957.723 58.413-.644 7.437-3.082 14.726-4.79 22.062-3.584 15.402-8.495 30.366-14.988 44.794-.752 1.67-1.478 3.415-2.575 4.851-4.736 6.197-4.824 13.375-4.875 20.681a54.493 54.493 0 0 1-1.284 11.443c-1.543 6.89-.422 13.507.765 20.292 2.208 12.636 4.052 25.343 5.737 38.061 1.288 9.715-2.093 18.665-5.119 27.695-3.03 9.044-5.568 18.257-8.199 27.432-2.834 9.885-5.443 19.836-8.314 29.711-1.247 4.288-3.095 8.404-4.283 12.705-.486 1.757-.265 3.876.187 5.695 1.286 5.174 1.367 10.215-.098 15.396-.515 1.825-.04 3.981.224 5.953.16 1.184.91 2.277 1.175 3.46 1.246 5.554 4.398 9.472 9.603 11.845 1.248.568 2.494 1.524 3.294 2.625 2.726 3.752-.165 9.06-4.964 9.814-3.154.495-6.172 1.996-9.326 2.32-3.017.308-6.188-.039-9.18-.644-1.92-.387-3.64-1.763-5.454-2.698-1.903 5.437-7.496 6.53-11.179 2.016-4.853-5.949-4.919-12.903-3.598-20.044 1.274-6.89 2.398-13.77-.214-20.637-1.988-5.225-.558-9.977 2.066-14.61.887-1.566 1.75-3.358 1.886-5.104 1.45-18.522 3.12-37.159-.683-55.506-3.249-15.685-2.048-31.029.885-46.432 1.178-6.187 3.471-12.199 4.218-18.416.62-5.152-.022-10.515-.592-15.73-.618-5.64-2.303-11.188-2.64-16.829-.812-13.536-1.444-27.103-1.463-40.659-.009-6.57 2.15-13.137 2.212-19.716.096-9.975-.819-19.959-1.234-29.94-.334-8.049-.558-16.102-.845-24.153-.075-2.117-.203-4.232-.965-6.383-.44 4.935-.74 9.89-1.353 14.803-1.046 8.395-2.344 16.757-3.436 25.146-1.43 10.99-1.327 22.002.067 32.975 1.31 10.311 1.013 20.607-.34 30.833-1.229 9.274-3.128 18.458-4.738 27.682-.07.4-.132.82-.304 1.181-6.057 12.696-2.278 25.563-.493 38.331 1.252 8.953 4.364 17.714 3.322 26.884-.594 5.227-1.65 10.492-3.268 15.491-1.638 5.058-2.105 10.096-2.239 15.327-.153 5.973-.459 11.983-1.327 17.886-1.217 8.28.445 16.274 1.63 24.32.576 3.907 1.441 7.845 2.787 11.547 1.64 4.507 1.101 8.792-.894 12.732-1.903 3.758-1.832 7.4-1.238 11.277.694 4.53 1.624 9.051 1.884 13.61.366 6.447-3.34 10.786-8.702 13.596-4.38 2.295-6.297 1.24-7.866-3.476-.157-.47-.39-.917-.797-1.854-1.127.746-2.13 1.285-2.985 2.002-2.34 1.965-4.68 3.257-7.706 1.22-.646-.436-1.769-.092-2.624-.303-1.714-.426-3.4-.965-5.083-1.512-.352-.114-.596-.54-.948-.687-2.557-1.06-5.243-1.884-7.635-3.234-.868-.489-1.506-2.234-1.444-3.362.174-3.188 1.85-5.52 4.408-7.617 3.478-2.849 6.767-6.053 9.577-9.555 2.083-2.597 2.902-5.84 2.307-9.509-.479-2.95-.31-6.196.396-9.11 2.1-8.656.011-16.649-2.544-24.847-3.33-10.684-5.918-21.599-8.8-32.42-2.332-8.75-4.539-17.533-6.958-26.259-3.72-13.425-4.308-26.886-1.174-40.515 2.19-9.522 4.341-19.062 6.097-28.668.872-4.768 1.06-9.703 1.107-14.567.043-4.579-.559-9.16-.78-13.747-.322-6.693-1.942-12.92-4.827-19.073-5.18-11.046-7.873-22.983-9.548-34.974-2.875-20.582-5.438-41.233-7.222-61.934-1.404-16.285-.216-32.615 2.292-48.823 1.573-10.172 1.66-20.693 4.307-30.548 2.837-10.555 2.867-21.088 3.51-31.726.306-5.055 1.1-10.19 2.52-15.04 2.39-8.167.722-15.7-1.802-21.969-1.182 3.777-2.764 8.528-4.134 13.34-.606 2.13-1.2 4.406-1.078 6.576.454 8.095-.146 15.858-2.684 23.761-2.309 7.187-2.33 15.074-4.054 22.491-2.067 8.887-5.772 17.082-12.083 24-2.06 2.257-3.175 5.388-4.658 8.154a2933.432 2933.432 0 0 0-9.31 17.528c-2.367 4.483-2.923 8.933-1.705 14.115.984 4.183.558 8.917-.197 13.24-1.4 8.018-3.63 15.885-5.258 23.868-1.178 5.772-1.93 11.631-2.906 17.446-.133.798-.396 1.59-.705 2.34-1.354 3.293-3.898 4.156-7.063 2.387-1.208 2.553-2.34 5.143-3.647 7.642-1.008 1.928-2.424 3.274-4.934 2.527-.545-.162-1.34.052-1.866.36-4.098 2.396-6.962.943-7.472-3.846l-.189-1.77c-4.247.451-5.459-.368-5.696-5.028-.468-9.159-.613-18.336-.84-27.507-.082-3.233-.014-6.468-.014-9.703l-.823-.459c-1.75 1.403-3.47 2.85-5.26 4.2-2.336 1.766-4.495 4.016-7.814 3.584-1.066-.137-2.095-.554-3.688-.995 1.31-2.583 2.268-4.927 3.606-7.028 4.584-7.2 8.93-14.6 14.093-21.367 3.72-4.874 8.772-8.71 12.88-13.32 1.654-1.857 2.883-4.43 3.43-6.875 2.043-9.13 3.552-18.38 5.606-27.509 1.225-5.447 3.171-10.729 4.622-16.132.412-1.533.55-3.29.255-4.839-1.886-9.935.38-19.217 4.044-28.35 3.446-8.589 7.312-17.065 9.953-25.902 1.898-6.35 3.097-13.255 2.823-19.838-.564-13.569.83-26.839 2.953-40.17.667-4.185.311-8.896-.933-12.95-3.352-10.93-1.594-21.085 2.885-31.187 1.353-3.05 2.436-6.305 3.071-9.577 1.533-7.894 6.61-12.807 13.076-16.81 5.43-3.36 11.143-5.69 17.457-6.998 3.896-.806 7.717-2.687 11.175-4.75 8.038-4.794 15.817-10.02 23.741-15.009 2.972-1.87 4-4.464 4.216-7.93.47-7.506-2.146-14.19-4.599-21.016-1.085-3.02-1.329-6.28-4.693-7.987-.698-.354-1.006-1.705-1.262-2.659-1.342-4.993-2.573-10.016-3.92-15.007-.579-2.145-.78-4.075.621-6.104.652-.944.702-2.477.63-3.72-.576-9.795-.963-19.44 2.622-28.98C138.304-.606 168.76-6.91 188.238 7.65c7.712 5.763 11.621 14.018 12.41 23.35.604 7.142-.102 14.402-.34 21.606-.074 2.204-.698 4.25.89 6.402.751 1.02.442 3.15.047 4.625-1.607 5.994-3.56 11.895-5.124 17.898-.76 2.918-2.729 3.835-5.346 4.267" fill="#0064B0" fill-rule="evenodd"/></symbol><symbol id="input-validate-correctly" viewBox="0 0 26.12 23.09"><defs><style>.bfcls-1{fill:#0052a0}</style></defs><title>ikon2</title><path class="bfcls-1" d="M26.12 3.36L22.32 0 9.67 15.36 3.36 8.51 0 12.3l9.73 10.57.14.22L26.12 3.36z"/></symbol><symbol viewBox="0 0 14.12 22.99" id="input-validate-error"><path fill="#0052a0" d="M4.7 15.58l3.65-.77a2 2 0 0 1-.48-1.42c.22-2.75 5.71-2.68 6.09-7.45.24-3-2.18-5.37-6.4-5.71A9.39 9.39 0 0 0 .15 2.84L2.56 6a5.25 5.25 0 0 1 4.19-1.68c1.8.14 2.48 1.05 2.4 2.07-.18 2.26-5 2.34-5.3 6.23a4.19 4.19 0 0 0 .85 2.96zm1 7.16a2.66 2.66 0 1 0-2.44-2.86 2.69 2.69 0 0 0 2.46 2.86z"/></symbol><symbol id="insurance-companies-learn-more" viewBox="0 0 15.7 9"><style>.bhst0{fill:#231f20}</style><path fill="#bfbfbf" class="bhst0" d="M7.7 8.7L.1 1.1.8.4l6.9 6.8 7.1-7 .7.7z"/></symbol><symbol id="loadmore-arrow-down" viewBox="0 0 15.7 9"><style/><path d="M7.7 8.7L.1 1.1.8.4l6.9 6.8 7.1-7 .7.7z"/></symbol><symbol id="logo" viewBox="0 0 201 85"><defs><style>.bjcls-1{fill:#89d5f5}.bjcls-1,.bjcls-2,.bjcls-3{fill-rule:evenodd}.bjcls-2{fill:#55c9f0}.bjcls-3{fill:#1fb0dc}</style></defs><path class="bjcls-1" d="M36.96 10.312l27.995 16.1V58.6L36.96 74.7 8.965 58.6V26.411zM36.96 0l36.958 21.255v42.5L36.96 85.005.007 63.752v-42.5zM61 28.688l-1.48.851-10.932 6.277-.713.415-.026-.016.713-.41c4.135-2.394 8.3-4.74 12.435-7.118zm-40.337 4.447l-7.735-4.447L36.96 14.866q3.87 2.218 7.734 4.447z"/><path class="bjcls-2" d="M36.943 83.9L.007 63.083V21.457l8.954 5.049v31.533l27.982 15.769V83.9zm-24.02-55.163v27.072l24.02 13.538.005-8.713-16.294-9.182V33.093z"/><path class="bjcls-3" d="M61.077 29.334v27.315L37.011 70.31v-8.792l16.322-9.265V39.85l-5.393-3.06q6.566-3.73 13.138-7.456M37.011 85l37-21.006v-42l-8.971 5.089V58.9L37.011 74.811V85z"/><path class="bjcls-2" d="M92.77 32.3c0-5.918 4.536-9.63 10.11-9.63a8.714 8.714 0 0 1 7.981 4.521l-4.033 2.094a4.633 4.633 0 0 0-3.948-2.372 5.15 5.15 0 0 0-5.21 5.387 5.152 5.152 0 0 0 5.21 5.387 5.928 5.928 0 0 0 3.443-1.117v-1.449h-4.2V30.9h9.019v7.4a10.815 10.815 0 0 1-8.262 3.628c-5.574.004-10.11-3.708-10.11-9.628zm31.621 9.3l-3.137-6.253h-2.464V41.6h-4.817V22.977h9.355c4.143 0 6.5 2.737 6.5 6.2a5.643 5.643 0 0 1-3.726 5.583l3.809 6.839h-5.517zm.533-12.449a2.086 2.086 0 0 0-2.325-1.983h-3.809v3.993h3.81a2.075 2.075 0 0 0 2.324-2.013zM145.173 41.6l-.924-2.68h-7.366l-.924 2.68H130.5l7.03-18.62h6.049l7.058 18.62h-5.462zm-4.621-13.873l-2.38 7.007h4.76zm24.17 13.873l-7.9-10.777V41.6h-4.817V22.977h4.956l7.563 10.245V22.977h4.844V41.6h-4.65zm8.014 0V22.977h7.841c5.883 0 10.11 3.518 10.11 9.3S186.46 41.6 180.605 41.6h-7.869zm13.022-9.323a4.775 4.775 0 0 0-5.153-5.109h-3.052v10.243h3.024a4.952 4.952 0 0 0 5.181-5.136zM110.1 64.864V52.747l-4.732 12.117h-2.129l-4.7-12.117v12.117h-4.818v-18.62h6.694l3.891 10.107 3.923-10.107h6.692v18.62H110.1zm8.18 0v-18.62h13.7v4.189h-8.88v2.9h8.681v4.186H123.1v3.156h8.878v4.186h-13.7zm16.5 0v-18.62h7.842c5.88 0 10.109 3.518 10.109 9.3s-4.229 9.323-10.082 9.323h-7.869zm13.02-9.323a4.775 4.775 0 0 0-5.153-5.109H139.6v10.246h3.025a4.952 4.952 0 0 0 5.175-5.137zm7.341 9.323v-18.62h4.818v18.62h-4.818zm7.227-9.3c0-5.752 4.367-9.63 10.11-9.63a8.617 8.617 0 0 1 8.148 5l-4.143 1.955a4.484 4.484 0 0 0-4-2.707 5.39 5.39 0 0 0 0 10.774 4.488 4.488 0 0 0 4-2.707l4.147 1.951a8.672 8.672 0 0 1-8.148 5c-5.743 0-10.11-3.909-10.11-9.632zm33.02 9.3l-.923-2.68H187.1l-.923 2.68h-5.462l7.03-18.621h6.055l7.058 18.621h-5.462zm-4.62-13.873L188.392 58h4.76z"/></symbol><symbol id="logo-dark" viewBox="0 0 201 85"><defs><style>.bkcls-1,.bkcls-2,.bkcls-3{fill-rule:evenodd;fill:#000}</style></defs><path class="bkcls-1" d="M36.96 10.312l27.995 16.1V58.6L36.96 74.7 8.965 58.6V26.411zM36.96 0l36.958 21.255v42.5L36.96 85.005.007 63.752v-42.5zM61 28.688l-1.48.851-10.932 6.277-.713.415-.026-.016.713-.41c4.135-2.394 8.3-4.74 12.435-7.118zm-40.337 4.447l-7.735-4.447L36.96 14.866q3.87 2.218 7.734 4.447z"/><path class="bkcls-2" d="M36.943 83.9L.007 63.083V21.457l8.954 5.049v31.533l27.982 15.769V83.9zm-24.02-55.163v27.072l24.02 13.538.005-8.713-16.294-9.182V33.093z"/><path class="bkcls-3" d="M61.077 29.334v27.315L37.011 70.31v-8.792l16.322-9.265V39.85l-5.393-3.06q6.566-3.73 13.138-7.456M37.011 85l37-21.006v-42l-8.971 5.089V58.9L37.011 74.811V85z"/><path class="bkcls-2" d="M92.77 32.3c0-5.918 4.536-9.63 10.11-9.63a8.714 8.714 0 0 1 7.981 4.521l-4.033 2.094a4.633 4.633 0 0 0-3.948-2.372 5.15 5.15 0 0 0-5.21 5.387 5.152 5.152 0 0 0 5.21 5.387 5.928 5.928 0 0 0 3.443-1.117v-1.449h-4.2V30.9h9.019v7.4a10.815 10.815 0 0 1-8.262 3.628c-5.574.004-10.11-3.708-10.11-9.628zm31.621 9.3l-3.137-6.253h-2.464V41.6h-4.817V22.977h9.355c4.143 0 6.5 2.737 6.5 6.2a5.643 5.643 0 0 1-3.726 5.583l3.809 6.839h-5.517zm.533-12.449a2.086 2.086 0 0 0-2.325-1.983h-3.809v3.993h3.81a2.075 2.075 0 0 0 2.324-2.013zM145.173 41.6l-.924-2.68h-7.366l-.924 2.68H130.5l7.03-18.62h6.049l7.058 18.62h-5.462zm-4.621-13.873l-2.38 7.007h4.76zm24.17 13.873l-7.9-10.777V41.6h-4.817V22.977h4.956l7.563 10.245V22.977h4.844V41.6h-4.65zm8.014 0V22.977h7.841c5.883 0 10.11 3.518 10.11 9.3S186.46 41.6 180.605 41.6h-7.869zm13.022-9.323a4.775 4.775 0 0 0-5.153-5.109h-3.052v10.243h3.024a4.952 4.952 0 0 0 5.181-5.136zM110.1 64.864V52.747l-4.732 12.117h-2.129l-4.7-12.117v12.117h-4.818v-18.62h6.694l3.891 10.107 3.923-10.107h6.692v18.62H110.1zm8.18 0v-18.62h13.7v4.189h-8.88v2.9h8.681v4.186H123.1v3.156h8.878v4.186h-13.7zm16.5 0v-18.62h7.842c5.88 0 10.109 3.518 10.109 9.3s-4.229 9.323-10.082 9.323h-7.869zm13.02-9.323a4.775 4.775 0 0 0-5.153-5.109H139.6v10.246h3.025a4.952 4.952 0 0 0 5.175-5.137zm7.341 9.323v-18.62h4.818v18.62h-4.818zm7.227-9.3c0-5.752 4.367-9.63 10.11-9.63a8.617 8.617 0 0 1 8.148 5l-4.143 1.955a4.484 4.484 0 0 0-4-2.707 5.39 5.39 0 0 0 0 10.774 4.488 4.488 0 0 0 4-2.707l4.147 1.951a8.672 8.672 0 0 1-8.148 5c-5.743 0-10.11-3.909-10.11-9.632zm33.02 9.3l-.923-2.68H187.1l-.923 2.68h-5.462l7.03-18.621h6.055l7.058 18.621h-5.462zm-4.62-13.873L188.392 58h4.76z"/></symbol><symbol id="make-appointment-check-mark" viewBox="0 0 74.3 74.02"><defs><style>.blcls-1{fill:#fff}.blcls-2{fill:#5ec3e9}</style></defs><title>ikon2</title><ellipse class="blcls-1" fill="#fff" cx="37.32" cy="37" rx="36.98" ry="37.01"/><path class="blcls-2" fill="#5ec3e9" d="M37.33 3a34 34 0 1 0 34 34 34 34 0 0 0-34-34zm1.41 51.15H28.09l-9.51-20h10.65l4.9 10.32 15.25-24.59H60z"/></symbol><symbol id="make-appointment-tel" viewBox="0 0 73.96 74.02"><defs><style>.bmcls-1{fill:#fff}.bmcls-2{fill:#5ec3e9}</style></defs><title>ikon2</title><ellipse class="bmcls-1" fill="#fff" cx="36.98" cy="37.01" rx="36.98" ry="37.01" transform="rotate(-.34 36.964 37.184)"/><path class="bmcls-2" fill="#5ec3e9" d="M37 3.55A33.46 33.46 0 1 0 70.42 37 33.45 33.45 0 0 0 37 3.55zm15 54.14c-3 1.37-8.47 2.66-15.81-3.15S21.4 39 20.35 31.14s.73-13.4 8.23-16l5.89 10.65-5.24 4.68s-2.18.65-1.45 1.94 4.35 11.22 13.06 16.3c2.42.32 2.42-.48 2.42-.81S48 43.33 48 43.33L57.77 51S55 56.32 52 57.69z"/></symbol><symbol id="map-marker" viewBox="0 0 41.07 45.9"><defs><style>.bncls-1{fill:none}.bncls-2{fill:#fff}.bncls-3{clip-path:url(#bnclip-path)}.bncls-4{isolation:isolate}.bncls-5{fill:#8cd8f1}.bncls-6{fill:#20b1dc}.bncls-7{fill:#52caf5}</style><clipPath id="bnclip-path"><path class="bncls-1" d="M-632.83-246.92h532.47v445.48h-532.47z"/></clipPath></defs><title>карта-02</title><path class="bncls-2" d="M21 .4L1.4 11.69v22.57L21 45.54l19.6-11.28V11.69L21 .4z"/><g class="bncls-3"><image class="bncls-4" width="1572" height="650" transform="translate(-1025 -292.2)" xlink:href="../../../../Users/vch/Dropbox/%c3%90%c2%a1%c3%90%c2%ba%c3%91%c2%80%c3%90%c2%b8%c3%90%c2%bd%c3%91%c2%88%c3%90%c2%be%c3%91%c2%82%c3%91%c2%8b/%c3%90%c2%a1%c3%90%c2%ba%c3%91%c2%80%c3%90%c2%b8%c3%90%c2%bd%c3%91%c2%88%c3%90%c2%be%c3%91%c2%82%202017-10-19%2017.50.47.html"/></g><path class="bncls-5" d="M21 2.24L3 12.61v20.73L21 43.7l18-10.36V12.61zm13.6 28.58L21 38.68 7.41 30.82v-15.7L21 7.27l13.6 7.85v15.7zM9.34 16.23l3.76 2.17 11.67-6.74L21 9.49z"/><path class="bncls-6" d="M32.69 16.23l-6.37 3.68 2.62 1.51v6.12L21 32.12v4.34l11.68-6.74V16.23zm1.92-1.11v15.7L21 38.68v5l18-10.34V12.61z"/><path class="bncls-7" d="M13.1 27.54V18.4l-3.76-2.17v13.48L21 36.45v-4.33zM7.41 15.12l-4.35-2.51v20.73L21 43.7v-5L7.41 30.82v-15.7z"/></symbol><symbol viewBox="0 0 107 19" id="menu-creator"><defs><style>.bocls-1{fill:#dcdcdc;fill-rule:evenodd}</style></defs><path class="bocls-1" d="M39.67 14l5.16 5L55.87 5.5 50.94.3zm22.9-14L51.38 14l5.23 5L67.85 5.3h10.82l-1.08 1.5h-8.78l-5.82 7.3 4.82 4.9h8.78l3.85-5.4h-9.26l1.24-1.7h9.03l5.38-6.6-4.5-5.3H62.57zM11.12 0L6.7 5.4h10.39L16 6.7H5.58L0 13.5 4.95 19l5.37-6.6h8.58l6.06-7.5L20.95 0h-9.83zm16.31 13.3l6.42-7.8 2.36-.1-6.4 7.9h-2.38zM30.78 0L19.85 13.5l4.68 5.5h8.78L44.38 5.6 40.12 0h-9.34zm62.2 0l-4.26 5.3h10.77l-1.24 1.5H87.8l-4.76 5.7-.89 1 4.74 5.5 3.85-5 3.44 5h8.25l-5.11-6.6h3.71L107 4.7 103.05 0H92.98z"/></symbol><symbol viewBox="0 0 121.75 25.47" id="menu-creator_likee"><defs><style>.bpcls-1{fill:#dcdcdc;fill-rule:evenodd}</style></defs><path class="bpcls-1" d="M12.828 10.08H9.467l-.512 5.91a24.311 24.311 0 0 1-.94 5.31 6.183 6.183 0 0 1-4.641 3.93 10.347 10.347 0 0 1-1.339.25l-2.05-3.73a3.639 3.639 0 0 0 3.56-4.01c.427-5.37.768-9.24.968-11.58h13.924v18.61h-5.581c0-1.61 0-4.06-.028-7.31v-7.38zm26.938 14.69l-.911-2.09h-6.521l-.94 2.09h-5.353L35.409 5.7h.655l9.169 19.07h-5.467zm-4.186-9.35l-1.651 3.7h3.36l-1.595-3.7h-.114zm34.655 9.35h-5.552v-9.43h-.114L53.406 25.2h-.626V6.16h5.581v9.38h.114L69.58 5.68h.655v19.09zM59.785 0a2.4 2.4 0 0 0 2.563 2.4A2.477 2.477 0 0 0 64.74 0h2.249a6.062 6.062 0 0 1-1.31 3.5 4.107 4.107 0 0 1-3.445 1.47c-3.047 0-4.613-2.15-4.727-4.97h2.278zm25.116 6.16v8.41l5.609-8.41h5.952l-6.35 8.98 6.663 9.63h-6.151l-5.723-9.04v9.04h-5.61V6.16h5.61zm36.849 18.61h-5.552v-9.43h-.114l-11.163 9.86h-.626V6.16h5.581v9.38h.114l11.1-9.86h.66v19.09z"/></symbol><symbol viewBox="0 0 71 71" id="menu-facebook"><path d="M65 0H6C2.7 0 0 2.7 0 6v59c0 3.3 2.7 6 6 6h31.617V43.282H28.29V32.48h9.327v-7.968c0-9.245 5.646-14.279 13.894-14.279 3.951 0 7.347.294 8.336.426v9.661l-5.72.003c-4.485 0-5.354 2.132-5.354 5.259v6.898H59.47l-1.393 10.802h-9.305V71H65c3.3 0 6-2.7 6-6V6c0-3.3-2.7-6-6-6z"/></symbol><symbol id="menu-insta" viewBox="0 0 44.13 43.59"><defs><style/></defs><title>Insta</title><path class="brcls-1" d="M30.93 5.33H14.52a8.59 8.59 0 0 0-8.58 8.58v16.41a8.59 8.59 0 0 0 8.58 8.58h16.41a8.59 8.59 0 0 0 8.58-8.58v-16.4a8.59 8.59 0 0 0-8.58-8.59zm5.58 25a5.59 5.59 0 0 1-5.58 5.58H14.52a5.59 5.59 0 0 1-5.58-5.58V13.92a5.59 5.59 0 0 1 5.58-5.58h16.41a5.59 5.59 0 0 1 5.58 5.58v16.4zM28.54 15a9.23 9.23 0 1 0-5.83 16.39 9.38 9.38 0 0 0 1-.05A9.23 9.23 0 0 0 28.54 15zm-.83 11.17a6.43 6.43 0 1 1-5.65-10.44 6.48 6.48 0 0 1 .68 0 6.43 6.43 0 0 1 6.38 5.76 6.38 6.38 0 0 1-1.41 4.68zm4.66-15.7a2 2 0 1 0 1 2.62 2 2 0 0 0-.99-2.62z"/></symbol><symbol id="menu-minus" viewBox="0 0 39.1 32.2"><style>.bsst0{fill:#00b5e3}.bsst1{fill:#2f4d9a}</style><path class="bsst0" d="M0 14.7h39.1V17H0z"/><path class="bsst1" d="M0 60.9h39.1v2.3H0z"/><path class="bsst1" d="M18.4 42.5h2.3v39.1h-2.3z"/></symbol><symbol viewBox="0 0 27 27" id="menu-ok"><title>icon</title><path d="M23.25 0C25.35 0 27 1.65 27 3.75v19.5c0 2.1-1.65 3.75-3.75 3.75H3.75C1.65 27 0 25.35 0 23.25V3.75C0 1.65 1.65 0 3.75 0h19.5zM17.1 14.325c-2.175 1.35-5.025 1.35-7.2 0-.75-.45-1.725-.225-2.175.525-.45.75-.225 1.725.525 2.175.975.6 2.025 1.05 3.075 1.275l-3 3c-.6.6-.6 1.575 0 2.25.3.3.675.45 1.125.45.375 0 .825-.15 1.125-.45l2.925-2.925 2.925 2.925c.6.6 1.575.6 2.25 0 .6-.6.6-1.575 0-2.25l-3-3a8.618 8.618 0 0 0 3.075-1.275c.75-.45.975-1.425.525-2.175-.45-.75-1.425-.975-2.175-.525zM13.5 3a5.218 5.218 0 0 0-5.25 5.25 5.218 5.218 0 0 0 5.25 5.25 5.218 5.218 0 0 0 5.25-5.25A5.218 5.218 0 0 0 13.5 3zm0 3c1.275 0 2.25.975 2.25 2.25s-.975 2.25-2.25 2.25-2.25-.975-2.25-2.25S12.225 6 13.5 6z"/></symbol><symbol id="menu-plus" viewBox="0 0 39.1 39.1"><style>.bust0{fill:#00b5e3}.bust1{fill:#2f4d9a}</style><path class="bust0" d="M0-27.7h39.1v2.3H0z"/><path class="bust1" d="M0 18.4h39.1v2.3H0z"/><path class="bust1" d="M18.4 0h2.3v39.1h-2.3z"/></symbol><symbol viewBox="219.327 223.556 73.795 66.008" id="menu-telegram"><path d="M278.735 289.564c-.576 0-1.149-.17-1.64-.504l-18.556-12.586-9.951 7.16a2.923 2.923 0 0 1-4.531-1.625l-4.997-18.938-17.854-6.828a2.92 2.92 0 0 1-.037-5.442l67.891-27.014a2.943 2.943 0 0 1 1.317-.228 2.907 2.907 0 0 1 2.025.993 2.918 2.918 0 0 1 .663 2.509l-11.459 60.126a2.927 2.927 0 0 1-2.871 2.377zm-18.566-19.044l16.527 11.211 8.917-46.786-32.205 30.989 6.683 4.533.078.053zm-13.76-2.493l2.213 8.385 4.769-3.43-6.243-4.236a2.905 2.905 0 0 1-.739-.719zm-16.124-14.565l12.26 4.686a2.921 2.921 0 0 1 1.781 1.984l1.555 5.893c.071-.68.38-1.32.88-1.801l30.688-29.528-47.164 18.766z"/></symbol><symbol viewBox="0 0 71 71" id="menu-vk"><path d="M65 0H6C2.7 0 0 2.7 0 6v59c0 3.3 2.7 6 6 6h59c3.3 0 6-2.7 6-6V6c0-3.3-2.7-6-6-6zm-9.783 39.114c.334.414 1.133 1.223 2.395 2.426h.029l.029.03.029.028.061.06c2.779 2.583 4.662 4.761 5.648 6.536.059.099.123.222.191.369.07.148.139.41.209.784.068.375.064.711-.016 1.006-.078.296-.324.567-.738.813s-.996.37-1.746.37l-7.57.118c-.475.098-1.025.049-1.656-.148-.631-.196-1.143-.414-1.539-.65l-.592-.355c-.59-.414-1.279-1.045-2.068-1.893s-1.465-1.611-2.025-2.292a9.825 9.825 0 0 0-1.805-1.715c-.643-.464-1.199-.617-1.672-.459-.059.021-.139.054-.236.104s-.268.192-.504.429a3.84 3.84 0 0 0-.635.872c-.188.346-.355.858-.504 1.538a9.844 9.844 0 0 0-.191 2.292c0 .295-.035.566-.104.812s-.143.429-.223.547l-.117.148c-.355.374-.877.591-1.568.651h-3.4c-1.4.078-2.838-.085-4.318-.488-1.479-.404-2.775-.928-3.889-1.568s-2.129-1.291-3.047-1.952c-.916-.66-1.611-1.228-2.084-1.7l-.74-.71a18.109 18.109 0 0 1-.812-.887c-.346-.395-1.051-1.291-2.115-2.691-1.064-1.399-2.109-2.889-3.135-4.466s-2.232-3.657-3.623-6.24a97.816 97.816 0 0 1-3.859-8.044c-.119-.315-.178-.582-.178-.799s.029-.375.09-.474l.117-.178c.297-.374.857-.562 1.688-.562l8.104-.059c.236.039.463.103.68.191.217.09.375.173.473.252l.148.089c.314.217.553.532.709.946.395.985.848 2.006 1.361 3.062a69.537 69.537 0 0 0 1.213 2.41l.473.857a34.448 34.448 0 0 0 1.656 3.076c.531.867 1.01 1.543 1.434 2.025.424.483.834.862 1.229 1.139s.729.414 1.004.414c.277 0 .543-.05.799-.147a.515.515 0 0 0 .148-.148c.059-.078.178-.295.355-.65.176-.354.311-.817.398-1.39.09-.572.182-1.37.281-2.396.098-1.024.098-2.257 0-3.696a13.802 13.802 0 0 0-.266-2.158c-.139-.65-.277-1.104-.414-1.36l-.179-.355c-.494-.671-1.332-1.094-2.514-1.271-.256-.039-.207-.276.148-.71.334-.374.709-.67 1.123-.887 1.045-.513 3.4-.75 7.068-.71 1.617.02 2.947.147 3.992.384.395.1.725.232.992.399.266.168.467.404.605.71s.242.621.311.946c.068.326.104.774.104 1.346 0 .572-.01 1.114-.029 1.627-.021.513-.045 1.207-.074 2.085-.029.877-.045 1.69-.045 2.44 0 .217-.008.631-.029 1.242-.02.61-.025 1.085-.016 1.42.01.334.045.733.104 1.197.061.463.172.848.342 1.153.166.306.389.548.664.725.158.039.326.079.504.118.176.04.434-.068.768-.325.336-.257.711-.597 1.125-1.021.414-.423.926-1.084 1.537-1.98a64.47 64.47 0 0 0 2.012-3.18 48.124 48.124 0 0 0 3.164-6.654c.08-.197.178-.37.295-.518.119-.148.227-.251.326-.311l.117-.089.148-.074.385-.089c.256-.06.453-.063.592-.015l8.518-.059c.77-.099 1.398-.074 1.893.073.492.148.799.311.916.488l.178.295c.453 1.262-1.025 4.16-4.438 8.695-.473.631-1.113 1.469-1.922 2.514-1.537 1.973-2.426 3.263-2.662 3.874-.335.811-.198 1.609.415 2.398z"/></symbol><symbol id="menu-youtube" viewBox="0 0 138 138"><style>.bxst0{fill:#1e3a8b}</style><path class="bxst0" d="M95.9 13.7h-52c-15 0-27.2 12.2-27.2 27.2v52c0 15 12.2 27.2 27.2 27.2h52c15 0 27.2-12.2 27.2-27.2v-52c0-14.9-12.2-27.2-27.2-27.2zm9 58.8c0 6.4-5.2 18.1-11.6 18.1H46.6c-6.4 0-11.6-11-11.6-17.4V61.5c0-6.4 5.2-18.2 11.6-18.2h46.7c6.4 0 11.6 11.7 11.6 18.1v11.1z"/><path class="bxst0" d="M63.6 54.2c-.2.8 0 25.5 0 25.5s20-13 18.7-12.8-18.7-12.7-18.7-12.7z"/></symbol><symbol viewBox="0 0 39 39" id="modal-appointment-close-modal"><title>Group 12</title><path d="M1.38 1.001L38 37.621m-.38-36.62L1 37.621" stroke-width="2" fill="none" fill-rule="evenodd"/></symbol><symbol viewBox="0 0 21 20" id="modal-authorization-check-mark"><title>Path 6 Copy</title><path d="M0 10.75L2.978 7.5c3.307 4.083 4.92 6 4.838 5.75C7.733 13 10.959 8.583 17.492 0c2.565 1.75 3.724 2.667 3.475 2.75-.249.083-4.633 5.833-13.151 17.25L0 10.75z" fill="#16398D" fill-rule="evenodd"/></symbol><symbol viewBox="0 0 31 31" id="modal-authorization-question"><title>Group 3</title><g fill="none" fill-rule="evenodd"><text font-family="Helvetica" font-size="21" letter-spacing=".75" fill="#BBBAC4" transform="translate(1 1)"><tspan x="8.285" y="22">?</tspan></text><path d="M15.5 30C7.492 30 1 23.508 1 15.5S7.492 1 15.5 1 30 7.492 30 15.5 23.508 30 15.5 30z" stroke-width="2"/></g></symbol><symbol id="modal-check-mark" viewBox="0 0 74.3 74.02"><defs><style>.cbcls-1{fill:#fff}.cbcls-2{fill:#5ec3e9}</style></defs><title>ikon2</title><ellipse class="cbcls-1" cx="37.32" cy="37" rx="36.98" ry="37.01"/><path class="cbcls-2" d="M37.33 3a34 34 0 1 0 34 34 34 34 0 0 0-34-34zm1.41 51.15H28.09l-9.51-20h10.65l4.9 10.32 15.25-24.59H60z"/></symbol><symbol id="modal-check-mark" viewBox="0 0 74.3 74.02"><defs><style>.cccls-1{fill:#fff}.cccls-2{fill:#5ec3e9}</style></defs><title>ikon2</title><ellipse class="cccls-1" cx="37.32" cy="37" rx="36.98" ry="37.01"/><path class="cccls-2" d="M37.33 3a34 34 0 1 0 34 34 34 34 0 0 0-34-34zm1.41 51.15H28.09l-9.51-20h10.65l4.9 10.32 15.25-24.59H60z"/></symbol><symbol id="modal-tel" viewBox="0 0 73.96 74.02"><defs><style>.cdcls-1{fill:#fff}.cdcls-2{fill:#5ec3e9}</style></defs><title>ikon2</title><ellipse class="cdcls-1" cx="36.98" cy="37.01" rx="36.98" ry="37.01" transform="rotate(-.34 36.964 37.184)"/><path class="cdcls-2" d="M37 3.55A33.46 33.46 0 1 0 70.42 37 33.45 33.45 0 0 0 37 3.55zm15 54.14c-3 1.37-8.47 2.66-15.81-3.15S21.4 39 20.35 31.14s.73-13.4 8.23-16l5.89 10.65-5.24 4.68s-2.18.65-1.45 1.94 4.35 11.22 13.06 16.3c2.42.32 2.42-.48 2.42-.81S48 43.33 48 43.33L57.77 51S55 56.32 52 57.69z"/></symbol><symbol id="modal-tel" viewBox="0 0 73.96 74.02"><defs><style>.cecls-1{fill:#fff}.cecls-2{fill:#5ec3e9}</style></defs><title>ikon2</title><ellipse class="cecls-1" cx="36.98" cy="37.01" rx="36.98" ry="37.01" transform="rotate(-.34 36.964 37.184)"/><path class="cecls-2" d="M37 3.55A33.46 33.46 0 1 0 70.42 37 33.45 33.45 0 0 0 37 3.55zm15 54.14c-3 1.37-8.47 2.66-15.81-3.15S21.4 39 20.35 31.14s.73-13.4 8.23-16l5.89 10.65-5.24 4.68s-2.18.65-1.45 1.94 4.35 11.22 13.06 16.3c2.42.32 2.42-.48 2.42-.81S48 43.33 48 43.33L57.77 51S55 56.32 52 57.69z"/></symbol><symbol viewBox="0 0 29 28" id="modal-user-icon"><title>Group 11</title><defs><path id="cfa" d="M0 .052h28.895V11H0z"/></defs><g fill="none" fill-rule="evenodd"><g transform="translate(0 17)"><mask id="cfb" fill="#fff"><use xlink:href="#cfa"/></mask><path d="M28.895 11C27.1 4.68 21.311.052 14.448.052 7.584.052 1.796 4.68 0 11h28.895zm-5.773-22c0 4.773-3.86 8.643-8.622 8.643-4.762 0-8.622-3.87-8.622-8.643 0-4.773 3.86-8.643 8.622-8.643 4.762 0 8.622 3.87 8.622 8.643" fill="#BBBAC4" mask="url(#cfb)"/></g><ellipse fill="#BBBAC4" cx="13.5" cy="7" rx="7.5" ry="7"/></g></symbol><symbol viewBox="0 0 29 28" id="modal-user-icon"><title>Group 11</title><defs><path id="cga" d="M0 .052h28.895V11H0z"/></defs><g fill="none" fill-rule="evenodd"><g transform="translate(0 17)"><mask id="cgb" fill="#fff"><use xlink:href="#cga"/></mask><path d="M28.895 11C27.1 4.68 21.311.052 14.448.052 7.584.052 1.796 4.68 0 11h28.895zm-5.773-22c0 4.773-3.86 8.643-8.622 8.643-4.762 0-8.622-3.87-8.622-8.643 0-4.773 3.86-8.643 8.622-8.643 4.762 0 8.622 3.87 8.622 8.643" fill="#BBBAC4" mask="url(#cgb)"/></g><ellipse fill="#BBBAC4" cx="13.5" cy="7" rx="7.5" ry="7"/></g></symbol><symbol viewBox="0 0 67 61" id="new-patient-clip"><title>Page 1</title><path d="M37.253 59.757L7.712 30.217C4.148 26.651-2.546 17.05 7.483 7.02c10.03-10.03 20.376-1.913 22.453.164L59.88 37.13c7.73 7.73 5.989 14.743 1.984 18.748-9.157 9.157-18.506-2.227-18.506-2.227L18.242 28.535c-2.977-2.977-2.945-7.278-.11-10.114 3.901-3.9 7.915-1.461 9.9.523l22.593 22.594" stroke-width="3" fill="none" fill-rule="evenodd"/></symbol><symbol viewBox="0 0 18 17" id="new-patient-edit-pen"><title>Path 4</title><path d="M11.283 0L1.474 9.809.94 16.223l6.414-.535 9.809-9.808z" fill="#16398D" fill-rule="evenodd"/></symbol><symbol viewBox="0 0 50.02 57" id="news-detail-action-label"><title>Безымянный-3</title><path fill="#fff" d="M25 57L0 42.75v-28.5L25 0l25 14.28v28.53z"/><path fill="#5acaf0" d="M25 3.49L3 16v25l22 12.5 22-12.44v-25zM14.35 31.85H13.2v-.6a2.2 2.2 0 0 1-1.72.74 1.81 1.81 0 0 1-1.85-1.85 1.75 1.75 0 0 1 1.85-1.81 2.15 2.15 0 0 1 1.72.67v-.79a1.08 1.08 0 0 0-1.25-1 2.13 2.13 0 0 0-1.58.7L9.9 27a3.09 3.09 0 0 1 2.24-.9 1.93 1.93 0 0 1 2.22 2v3.7zm5.27 0L18 29.55l-.74.8v1.5h-1.17v-5.58h1.16V29l2.35-2.69H21l-2.18 2.49 2.26 3h-1.46zm7.86 1.42h-1.16v-1.42h-4.19v-5.58h1.16v4.52h2.45v-4.52h1.16v4.52h.58v2.48zm5.95-1.42h-1.16V28l-2.49 3.86h-1.11v-5.59h1.16V30l2.45-3.75h1.16v5.58zm6.43 0H38.7v-2h-1.23l-1.17 2H35l1.31-2.08A1.65 1.65 0 0 1 35 28a1.68 1.68 0 0 1 1.76-1.78h3v5.58zM36.23 28a.68.68 0 0 0 .73.72h1.74v-1.39H37a.69.69 0 0 0-.77.67zm-24.3 1.11a1 1 0 1 0 0 2 1.53 1.53 0 0 0 1.27-.58v-.8a1.53 1.53 0 0 0-1.27-.57z"/></symbol><symbol id="news-detail-action-label-hover" viewBox="0 0 50.02 57"><defs><style>.ckcls-1{fill:#fff}.ckcls-2{fill:#234089}</style></defs><title>Безымянный-3</title><path class="ckcls-1" d="M25 57L0 42.75v-28.5L25 0l25 14.28v28.53z"/><path class="ckcls-2" d="M25 3.49L3 16v25l22 12.5 22-12.44v-25zM14.35 31.85H13.2v-.6a2.2 2.2 0 0 1-1.72.74 1.81 1.81 0 0 1-1.85-1.85 1.75 1.75 0 0 1 1.85-1.81 2.15 2.15 0 0 1 1.72.67v-.79a1.08 1.08 0 0 0-1.25-1 2.13 2.13 0 0 0-1.58.7L9.9 27a3.09 3.09 0 0 1 2.24-.9 1.93 1.93 0 0 1 2.22 2v3.7zm5.27 0L18 29.55l-.74.8v1.5h-1.17v-5.58h1.16V29l2.35-2.69H21l-2.18 2.49 2.26 3h-1.46zm7.86 1.42h-1.16v-1.42h-4.19v-5.58h1.16v4.52h2.45v-4.52h1.16v4.52h.58v2.48zm5.95-1.42h-1.16V28l-2.49 3.86h-1.11v-5.59h1.16V30l2.45-3.75h1.16v5.58zm6.43 0H38.7v-2h-1.23l-1.17 2H35l1.31-2.08A1.65 1.65 0 0 1 35 28a1.68 1.68 0 0 1 1.76-1.78h3v5.58zM36.23 28a.68.68 0 0 0 .73.72h1.74v-1.39H37a.69.69 0 0 0-.77.67zm-24.3 1.11a1 1 0 1 0 0 2 1.53 1.53 0 0 0 1.27-.58v-.8a1.53 1.53 0 0 0-1.27-.57z"/></symbol><symbol viewBox="0 0 50.02 57" id="news-list-action-label"><title>Безымянный-3</title><path fill="#fff" d="M25 57L0 42.75v-28.5L25 0l25 14.28v28.53z"/><path fill="#5acaf0" d="M25 3.49L3 16v25l22 12.5 22-12.44v-25zM14.35 31.85H13.2v-.6a2.2 2.2 0 0 1-1.72.74 1.81 1.81 0 0 1-1.85-1.85 1.75 1.75 0 0 1 1.85-1.81 2.15 2.15 0 0 1 1.72.67v-.79a1.08 1.08 0 0 0-1.25-1 2.13 2.13 0 0 0-1.58.7L9.9 27a3.09 3.09 0 0 1 2.24-.9 1.93 1.93 0 0 1 2.22 2v3.7zm5.27 0L18 29.55l-.74.8v1.5h-1.17v-5.58h1.16V29l2.35-2.69H21l-2.18 2.49 2.26 3h-1.46zm7.86 1.42h-1.16v-1.42h-4.19v-5.58h1.16v4.52h2.45v-4.52h1.16v4.52h.58v2.48zm5.95-1.42h-1.16V28l-2.49 3.86h-1.11v-5.59h1.16V30l2.45-3.75h1.16v5.58zm6.43 0H38.7v-2h-1.23l-1.17 2H35l1.31-2.08A1.65 1.65 0 0 1 35 28a1.68 1.68 0 0 1 1.76-1.78h3v5.58zM36.23 28a.68.68 0 0 0 .73.72h1.74v-1.39H37a.69.69 0 0 0-.77.67zm-24.3 1.11a1 1 0 1 0 0 2 1.53 1.53 0 0 0 1.27-.58v-.8a1.53 1.53 0 0 0-1.27-.57z"/></symbol><symbol id="news-list-action-label-hover" viewBox="0 0 50.02 57"><defs><style>.cmcls-1{fill:#fff}.cmcls-2{fill:#234089}</style></defs><title>Безымянный-3</title><path class="cmcls-1" d="M25 57L0 42.75v-28.5L25 0l25 14.28v28.53z"/><path class="cmcls-2" d="M25 3.49L3 16v25l22 12.5 22-12.44v-25zM14.35 31.85H13.2v-.6a2.2 2.2 0 0 1-1.72.74 1.81 1.81 0 0 1-1.85-1.85 1.75 1.75 0 0 1 1.85-1.81 2.15 2.15 0 0 1 1.72.67v-.79a1.08 1.08 0 0 0-1.25-1 2.13 2.13 0 0 0-1.58.7L9.9 27a3.09 3.09 0 0 1 2.24-.9 1.93 1.93 0 0 1 2.22 2v3.7zm5.27 0L18 29.55l-.74.8v1.5h-1.17v-5.58h1.16V29l2.35-2.69H21l-2.18 2.49 2.26 3h-1.46zm7.86 1.42h-1.16v-1.42h-4.19v-5.58h1.16v4.52h2.45v-4.52h1.16v4.52h.58v2.48zm5.95-1.42h-1.16V28l-2.49 3.86h-1.11v-5.59h1.16V30l2.45-3.75h1.16v5.58zm6.43 0H38.7v-2h-1.23l-1.17 2H35l1.31-2.08A1.65 1.65 0 0 1 35 28a1.68 1.68 0 0 1 1.76-1.78h3v5.58zM36.23 28a.68.68 0 0 0 .73.72h1.74v-1.39H37a.69.69 0 0 0-.77.67zm-24.3 1.11a1 1 0 1 0 0 2 1.53 1.53 0 0 0 1.27-.58v-.8a1.53 1.53 0 0 0-1.27-.57z"/></symbol><symbol viewBox="0 0 63.175 56.007" id="news-list-read-more"><path d="M35.172 0l-4.01 4.01 21.16 21.159H0v5.67h52.322L31.163 51.997l4.008 4.01 28.004-28.003z"/></symbol><symbol viewBox="0 0 117.379 117.378" id="news-list-slider-button"><path fill="#E7E7E7" d="M58.689 117.378C26.328 117.378 0 91.05 0 58.688S26.328 0 58.689 0s58.689 26.327 58.689 58.688-26.327 58.69-58.689 58.69zm0-114.544c-30.799 0-55.855 25.057-55.855 55.854 0 30.799 25.057 55.855 55.855 55.855s55.855-25.057 55.855-55.855c.001-30.797-25.056-55.854-55.855-55.854z"/><path fill="#70839E" d="M52.875 82.736l-4.01-4.007 20.039-20.041L48.865 38.65l4.01-4.008 24.047 24.046z"/></symbol><symbol viewBox="0 0 117.379 117.378" id="news-list-slider-button-hover"><path fill="#fff" d="M52.875 82.736l-4.01-4.007 20.039-20.041L48.865 38.65l4.01-4.008 24.047 24.046z"/></symbol><symbol id="partner-learn-more" viewBox="0 0 15.7 9"><style>.cqst0{fill:#231f20}</style><path fill="#bfbfbf" class="cqst0" d="M7.7 8.7L.1 1.1.8.4l6.9 6.8 7.1-7 .7.7z"/></symbol><symbol viewBox="0 0 33 33" id="partner-search"><title>Fill 1</title><path d="M13.776 26.216c-6.453.005-11.688-5.302-11.694-11.854-.006-6.553 5.22-11.87 11.674-11.875 6.453-.006 11.688 5.302 11.694 11.854v.021c-.011 6.542-5.231 11.843-11.674 11.854zm10.858-3.234c4.837-6.034 3.94-14.908-2.002-19.82C16.69-1.75 7.952-.84 3.115 5.195c-4.838 6.034-3.941 14.907 2 19.82a13.715 13.715 0 0 0 18.086-.497l7.593 7.711 1.493-1.475-7.653-7.772z" fill="#BBBAC4" fill-rule="evenodd"/></symbol><symbol id="patient-reviews-quotes" viewBox="0 0 19.3 15.4"><style/><path d="M11.6 9.2c.5-.7 1.3-1 2.3-1 .3 0 .6 0 .8.1 0-1.4-.3-2.5-1-3.4-.7-.9-1.5-1.6-2.6-2.2L13 0c.5.2 1.2.5 1.9 1s1.4 1.1 2.1 2 1.2 1.8 1.7 3 .7 2.6.7 4.2c0 1.7-.4 3-1.3 3.9-.9.9-2 1.3-3.3 1.3-1.1 0-2.1-.3-2.8-1-.7-.7-1.1-1.6-1.1-2.7-.1-1 .2-1.8.7-2.5zM.8 9.2c.5-.7 1.3-1 2.3-1 .3 0 .6 0 .8.1 0-1.4-.3-2.5-1-3.4-.6-1-1.5-1.8-2.6-2.3L2.1 0C2.7.2 3.3.5 4 1s1.4 1.1 2.1 2 1.2 1.8 1.7 3 .7 2.6.7 4.2c0 1.7-.4 3-1.3 3.9-.9.9-2 1.3-3.3 1.3-1.1 0-2.1-.3-2.8-1S0 12.8 0 11.7c0-1 .3-1.8.8-2.5z"/></symbol><symbol viewBox="0 0 45 47" id="personal-area-calendar"><title>Group 10</title><defs><rect id="cta" y="7" width="45" height="30" rx="3"/><rect id="ctb" x="7" width="5" height="16" rx="2"/><rect id="ctc" y="17" width="45" height="30" rx="3"/><rect id="ctd" x="33" width="5" height="16" rx="2"/></defs><g fill="none" fill-rule="evenodd"><use fill="#000" xlink:href="#cta"/><rect x=".5" y="7.5" width="44" height="29" rx="3"/><use fill="#000" xlink:href="#ctb"/><rect x="7.5" y=".5" width="4" height="15" rx="2"/><use fill="#FFF" xlink:href="#ctc"/><rect x=".5" y="17.5" width="44" height="29" rx="3"/><use fill="#000" xlink:href="#ctd"/><rect x="33.5" y=".5" width="4" height="15" rx="2"/><text font-family="ProximaNova-Semibold, Proxima Nova" font-size="21" font-weight="500" letter-spacing=".664" fill="#000"><tspan x="12" y="39">31</tspan></text></g></symbol><symbol viewBox="0 0 165 164" id="personal-area-icon-play"><title>Group 6</title><g fill="none" fill-rule="evenodd"><path d="M164.254 81.51c0 45.013-36.766 81.506-82.122 81.506C36.767 163.016 0 126.523 0 81.509 0 36.49 36.767 0 82.132 0c45.356 0 82.122 36.49 82.122 81.51L79.23 86.612" fill="#2F51A1"/><path fill="#FEFEFE" d="M66.678 118.925V50.548l49.44 34.187z"/></g></symbol><symbol id="personal-area-learn-more" viewBox="0 0 15.7 9"><style>.cvst0{fill:#231f20}</style><path fill="#bfbfbf" class="cvst0" d="M7.7 8.7L.1 1.1.8.4l6.9 6.8 7.1-7 .7.7z"/></symbol><symbol viewBox="0 0 39 37" id="personal-area-lightbox-close"><title>Group 12</title><path d="M1.38 1.001L38 35.604m-.38-34.603L1 35.604" stroke-width="2" fill="none" fill-rule="evenodd"/></symbol><symbol viewBox="0 0 328 766" id="personal-area-man-body"><title>Group</title><defs><path id="cxa" d="M0 0h327.496v765.102H0z"/></defs><g fill="none" fill-rule="evenodd"><mask id="cxb" fill="#fff"><use xlink:href="#cxa"/></mask><path d="M190.775 85.798c-2.285 9.101-4.629 17.851-4.167 27.087.156 3.098 1.076 5.353 3.88 6.661 7.561 3.528 15.082 7.152 22.733 10.476 9.62 4.178 19.51 7.766 28.987 12.233 7.11 3.351 12.901 8.481 15.578 16.337 2.165 6.355 4.681 12.606 6.51 19.054 1.813 6.395 1.54 13.11-.205 19.405-2.9 10.461-2.41 20.77-.35 31.19 2.78 14.067 4.198 28.21 2.482 42.547-1.013 8.466 1.072 16.042 6.172 23.005 7.478 10.211 9.74 22.168 10.59 34.488.997 14.392 2.226 28.672 7.47 42.4 2.26 5.911 2.945 12.463 3.983 18.785.513 3.13 1.64 5.317 4.303 7.235 4.442 3.197 8.577 6.843 12.647 10.516 1.303 1.176 2.215 2.941 2.915 4.601 2.467 5.855 5.31 11.415 9.956 15.926 1.203 1.168 2.107 2.772 2.777 4.335 1.358 3.172-.428 5.513-3.595 4.273-3.305-1.294-6.217-3.657-9.18-5.725-1.702-1.188-3.166-2.718-4.737-4.094l-.948.345c0 1.44-.07 2.884.012 4.32.646 11.322 1.152 22.644-1.183 33.853-.433 2.081-1.21 4.1-1.956 6.098-.27.73-.842 1.813-1.4 1.896-3.297.49-5.217 3.297-7.997 4.464-1.264.532-3.125-.36-5.307-.7-3.759 2.522-6.067-.495-8.684-8.21-3.688 2.243-4.585-.97-5.605-3.173-4.952-10.693-8.85-21.764-9.372-33.646-.35-8.02-.443-16.112.238-24.096.48-5.608-.458-10.448-3.385-15.093-.7-1.11-1.549-2.35-1.64-3.583-.66-8.846-6.069-15.662-9.78-23.179-6.074-12.303-12.974-24.287-15.803-37.884-1.428-6.867-1.388-14.057-3.03-20.856-1.453-6.018-3.027-11.807-1.524-17.999.184-.755.055-1.656-.157-2.426-2.439-8.863-4.579-17.76-3.866-27.083-1.114 4.94-2.5 9.84-3.237 14.836-.433 2.938.04 6.042.332 9.05.676 6.97 2.057 13.925 2.091 20.892.035 7.096 1.016 13.956 2.113 20.91 1.077 6.831 1.288 13.801 1.866 20.712 1.182 14.128 2.378 28.255 3.527 42.385 1.582 19.455 2.405 38.957.723 58.413-.644 7.437-3.082 14.726-4.79 22.062-3.584 15.402-8.495 30.366-14.988 44.794-.752 1.67-1.478 3.415-2.575 4.851-4.736 6.197-4.824 13.375-4.875 20.681a54.493 54.493 0 0 1-1.284 11.443c-1.543 6.89-.422 13.507.765 20.292 2.208 12.636 4.052 25.343 5.737 38.061 1.288 9.715-2.093 18.665-5.119 27.695-3.03 9.044-5.568 18.257-8.199 27.432-2.834 9.885-5.443 19.836-8.314 29.711-1.247 4.288-3.095 8.404-4.283 12.705-.486 1.757-.265 3.876.187 5.695 1.286 5.174 1.367 10.215-.098 15.396-.515 1.825-.04 3.981.224 5.953.16 1.184.91 2.277 1.175 3.46 1.246 5.554 4.398 9.472 9.603 11.845 1.248.568 2.494 1.524 3.294 2.625 2.726 3.752-.165 9.06-4.964 9.814-3.154.495-6.172 1.996-9.326 2.32-3.017.308-6.188-.039-9.18-.644-1.92-.387-3.64-1.763-5.454-2.698-1.903 5.437-7.496 6.53-11.179 2.016-4.853-5.949-4.919-12.903-3.598-20.044 1.274-6.89 2.398-13.77-.214-20.637-1.988-5.225-.558-9.977 2.066-14.61.887-1.566 1.75-3.358 1.886-5.104 1.45-18.522 3.12-37.159-.683-55.506-3.249-15.685-2.048-31.029.885-46.432 1.178-6.187 3.471-12.199 4.218-18.416.62-5.152-.022-10.515-.592-15.73-.618-5.64-2.303-11.188-2.64-16.829-.812-13.536-1.444-27.103-1.463-40.659-.009-6.57 2.15-13.137 2.212-19.716.096-9.975-.819-19.959-1.234-29.94-.334-8.049-.558-16.102-.845-24.153-.075-2.117-.203-4.232-.965-6.383-.44 4.935-.74 9.89-1.353 14.803-1.046 8.395-2.344 16.757-3.436 25.146-1.43 10.99-1.327 22.002.067 32.975 1.31 10.311 1.013 20.607-.34 30.833-1.229 9.274-3.128 18.458-4.738 27.682-.07.4-.132.82-.304 1.181-6.057 12.696-2.278 25.563-.493 38.331 1.252 8.953 4.364 17.714 3.322 26.884-.594 5.227-1.65 10.492-3.268 15.491-1.638 5.058-2.105 10.096-2.239 15.327-.153 5.973-.459 11.983-1.327 17.886-1.217 8.28.445 16.274 1.63 24.32.576 3.907 1.441 7.845 2.787 11.547 1.64 4.507 1.101 8.792-.894 12.732-1.903 3.758-1.832 7.4-1.238 11.277.694 4.53 1.624 9.051 1.884 13.61.366 6.447-3.34 10.786-8.702 13.596-4.38 2.295-6.297 1.24-7.866-3.476-.157-.47-.39-.917-.797-1.854-1.127.746-2.13 1.285-2.985 2.002-2.34 1.965-4.68 3.257-7.706 1.22-.646-.436-1.769-.092-2.624-.303-1.714-.426-3.4-.965-5.083-1.512-.352-.114-.596-.54-.948-.687-2.557-1.06-5.243-1.884-7.635-3.234-.868-.489-1.506-2.234-1.444-3.362.174-3.188 1.85-5.52 4.408-7.617 3.478-2.849 6.767-6.053 9.577-9.555 2.083-2.597 2.902-5.84 2.307-9.509-.479-2.95-.31-6.196.396-9.11 2.1-8.656.011-16.649-2.544-24.847-3.33-10.684-5.918-21.599-8.8-32.42-2.332-8.75-4.539-17.533-6.958-26.259-3.72-13.425-4.308-26.886-1.174-40.515 2.19-9.522 4.341-19.062 6.097-28.668.872-4.768 1.06-9.703 1.107-14.567.043-4.579-.559-9.16-.78-13.747-.322-6.693-1.942-12.92-4.827-19.073-5.18-11.046-7.873-22.983-9.548-34.974-2.875-20.582-5.438-41.233-7.222-61.934-1.404-16.285-.216-32.615 2.292-48.823 1.573-10.172 1.66-20.693 4.307-30.548 2.837-10.555 2.867-21.088 3.51-31.726.306-5.055 1.1-10.19 2.52-15.04 2.39-8.167.722-15.7-1.802-21.969-1.182 3.777-2.764 8.528-4.134 13.34-.606 2.13-1.2 4.406-1.078 6.576.454 8.095-.146 15.858-2.684 23.761-2.309 7.187-2.33 15.074-4.054 22.491-2.067 8.887-5.772 17.082-12.083 24-2.06 2.257-3.175 5.388-4.658 8.154a2933.432 2933.432 0 0 0-9.31 17.528c-2.367 4.483-2.923 8.933-1.705 14.115.984 4.183.558 8.917-.197 13.24-1.4 8.018-3.63 15.885-5.258 23.868-1.178 5.772-1.93 11.631-2.906 17.446-.133.798-.396 1.59-.705 2.34-1.354 3.293-3.898 4.156-7.063 2.387-1.208 2.553-2.34 5.143-3.647 7.642-1.008 1.928-2.424 3.274-4.934 2.527-.545-.162-1.34.052-1.866.36-4.098 2.396-6.962.943-7.472-3.846l-.189-1.77c-4.247.451-5.459-.368-5.696-5.028-.468-9.159-.613-18.336-.84-27.507-.082-3.233-.014-6.468-.014-9.703l-.823-.459c-1.75 1.403-3.47 2.85-5.26 4.2-2.336 1.766-4.495 4.016-7.814 3.584-1.066-.137-2.095-.554-3.688-.995 1.31-2.583 2.268-4.927 3.606-7.028 4.584-7.2 8.93-14.6 14.093-21.367 3.72-4.874 8.772-8.71 12.88-13.32 1.654-1.857 2.883-4.43 3.43-6.875 2.043-9.13 3.552-18.38 5.606-27.509 1.225-5.447 3.171-10.729 4.622-16.132.412-1.533.55-3.29.255-4.839-1.886-9.935.38-19.217 4.044-28.35 3.446-8.589 7.312-17.065 9.953-25.902 1.898-6.35 3.097-13.255 2.823-19.838-.564-13.569.83-26.839 2.953-40.17.667-4.185.311-8.896-.933-12.95-3.352-10.93-1.594-21.085 2.885-31.187 1.353-3.05 2.436-6.305 3.071-9.577 1.533-7.894 6.61-12.807 13.076-16.81 5.43-3.36 11.143-5.69 17.457-6.998 3.896-.806 7.717-2.687 11.175-4.75 8.038-4.794 15.817-10.02 23.741-15.009 2.972-1.87 4-4.464 4.216-7.93.47-7.506-2.146-14.19-4.599-21.016-1.085-3.02-1.329-6.28-4.693-7.987-.698-.354-1.006-1.705-1.262-2.659-1.342-4.993-2.573-10.016-3.92-15.007-.579-2.145-.78-4.075.621-6.104.652-.944.702-2.477.63-3.72-.576-9.795-.963-19.44 2.622-28.98C138.304-.606 168.76-6.91 188.238 7.65c7.712 5.763 11.621 14.018 12.41 23.35.604 7.142-.102 14.402-.34 21.606-.074 2.204-.698 4.25.89 6.402.751 1.02.442 3.15.047 4.625-1.607 5.994-3.56 11.895-5.124 17.898-.76 2.918-2.729 3.835-5.346 4.267" fill="#E4E4E4" mask="url(#cxb)"/><path d="M163.498 178L133 195.752v35.496L163.498 249 194 231.248v-35.496L163.498 178zm-23.105 48.946v-26.888l23.105-13.446 23.105 13.446v26.888l-23.105 13.447-23.105-13.447z" fill="#FFF"/><path fill="#FFF" d="M133 231.997L164 250v-8.729l-23.485-13.636v-27.268L133 196z"/><path fill="#FFF" d="M144 202v23.332L163.996 237l.004-7.51-13.564-7.913v-15.822zm40 0v23.332L164 237v-7.51l13.564-7.913v-10.595l-4.482-2.613c3.638-2.125 7.278-4.25 10.918-6.369m-33.563 3.392L144 201.644 163.998 190a3966.6 3966.6 0 0 1 6.436 3.747c-1.715 1-19.997 11.645-19.997 11.645M184 201.644l-1.231.718-9.095 5.289-.593.349-.022-.014.593-.345c3.44-2.017 6.903-3.993 10.348-5.997"/><path fill="#FFF" d="M164 249l31-17.67V196l-7.518 4.286v26.763L164 240.433z"/></g></symbol><symbol viewBox="0 0 29 56" id="personal-area-slider-button"><title>Path 2 Copy</title><path stroke-width="4" d="M27.405 2L3 28.613l23.862 26.02" fill="none" fill-rule="evenodd"/></symbol><symbol id="price-list-learn-more" viewBox="0 0 15.7 9"><style>.czst0{fill:#231f20}</style><path fill="#bfbfbf" class="czst0" d="M7.7 8.7L.1 1.1.8.4l6.9 6.8 7.1-7 .7.7z"/></symbol><symbol id="price-list-pochki" viewBox="0 0 27.8 20.8"><style>.dast0{fill:#7ecbd7}</style><path class="dast0" d="M27.5 7.1l-.1-.3C27 4.2 25.1 1.5 23 .5c-1.4-.7-2.9-.7-4.2 0C16.2 2 16.2 4 16.5 5.1c.3.9.8 1.8 1.5 2.5-1.3.3-2.7.9-4.1 1.7-1.4-.7-2.7-1.3-4.1-1.7.7-.7 1.2-1.6 1.5-2.5C11.5 4 11.6 2 9 .5 7.7-.2 6.3-.2 4.8.5 2.6 1.5.8 4.2.3 6.8v.3c-.3 1.7-.8 4.4 1.2 8.5 1.1 2.1 3 3.6 5.1 3.9h.7c1.3 0 2.4-.5 3.2-1.3l.3-.3c0 .8.1 1.7.1 2.9h2c0-4.5-.2-6-1.3-7.8-.8-1.4-2.2-1.9-2.8-2.1-.9-.3-1.5-.3-1.6-.3v2s.4 0 .9.2c.6.2 1.3.5 1.7 1.2.2.5.2 1.8-.8 2.9-.5.5-1.3.8-2.2.6-1.5-.2-2.8-1.2-3.5-2.8C1.6 11.2 2 9 2.3 7.4l.1-.3c.3-2 1.8-4.1 3.4-4.8.8-.4 1.6-.4 2.3 0 1.5.8 1.4 1.7 1.4 2-.2 1.4-1.8 2.9-2.3 3l-.1 1 .1 1h.1c2 0 4.4.9 6.6 2.5 2.2-1.6 4.6-2.5 6.6-2.5h.2l-.1-2c-.5-.1-2.1-1.6-2.3-3 0-.3-.1-1.2 1.4-2 .7-.4 1.5-.4 2.3 0 1.6.8 3.1 2.9 3.4 4.8l.1.3c.3 1.5.7 3.8-1.1 7.3-.8 1.5-2.1 2.6-3.5 2.8-.9.1-1.7-.1-2.2-.6-1-1.1-1-2.3-.7-2.9.4-.7 1.1-1 1.8-1.2.5-.2.9-.2.9-.2v-2c-.1 0-.7 0-1.6.3-.6.2-2 .7-2.8 2.1-1.1 1.8-1.3 3.3-1.3 7.8h2c0-1.2 0-2.2.1-2.9l.3.3c.8.9 1.9 1.3 3.2 1.3h.7c2.1-.3 4-1.7 5.1-3.9 1.9-4.1 1.4-6.8 1.1-8.5zm-20.3.2zm13.4 0z"/></symbol><symbol viewBox="0 0 31 31" id="question-answer-question"><title>Group 22</title><g fill="none" fill-rule="evenodd"><text font-family="Helvetica" font-size="21" letter-spacing=".75" fill="#BBBAC4" transform="translate(1 1)"><tspan x="8.285" y="22">?</tspan></text><path d="M15.5 30C7.492 30 1 23.508 1 15.5S7.492 1 15.5 1 30 7.492 30 15.5 23.508 30 15.5 30z" stroke-width="2"/></g></symbol><symbol viewBox="0 0 39 30" id="question-answer-quotes"><title>Кавычки</title><path d="M9.195 15.102c-.047-1.928-.712-3.857-1.993-5.785-1.349-2.031-3.095-3.574-5.238-4.63L5.654 0c10 6.485 13.513 14.219 10.536 23.203-.437 1.32-1.66 3.228-3.15 4.51a7.656 7.656 0 0 1-5.421 2.229c-4.208 0-7.619-3.358-7.619-7.5 0-4.143 3.411-7.5 7.619-7.5.54 0 1.068.055 1.576.16zm20.953 0c-.048-1.928-.712-3.857-1.993-5.785-1.35-2.031-3.095-3.574-5.238-4.63L26.607 0c10 6.485 13.512 14.219 10.536 23.203-.437 1.32-1.661 3.228-3.151 4.51a7.656 7.656 0 0 1-5.42 2.229c-4.208 0-7.62-3.358-7.62-7.5 0-4.143 3.412-7.5 7.62-7.5.54 0 1.067.055 1.576.16z" fill="#19B4DC" fill-rule="evenodd"/></symbol><symbol viewBox="0 0 21 20" id="registration-check-mark"><title>Path 6 Copy</title><path d="M0 10.75L2.978 7.5c3.307 4.083 4.92 6 4.838 5.75C7.733 13 10.959 8.583 17.492 0c2.565 1.75 3.724 2.667 3.475 2.75-.249.083-4.633 5.833-13.151 17.25L0 10.75z" fill="#16398D" fill-rule="evenodd"/></symbol><symbol viewBox="0 0 21 20" id="registration-check-mark"><title>Path 6 Copy</title><path d="M0 10.75L2.978 7.5c3.307 4.083 4.92 6 4.838 5.75C7.733 13 10.959 8.583 17.492 0c2.565 1.75 3.724 2.667 3.475 2.75-.249.083-4.633 5.833-13.151 17.25L0 10.75z" fill="#16398D" fill-rule="evenodd"/></symbol><symbol viewBox="0 0 21 20" id="registration-check-mark-password"><title>Path 6 Copy 10</title><path d="M0 10.75L2.978 7.5c3.307 4.083 4.92 6 4.838 5.75C7.733 13 10.959 8.583 17.492 0c2.565 1.75 3.724 2.667 3.475 2.75-.249.083-4.633 5.833-13.151 17.25L0 10.75z" fill="#6AC402" fill-rule="evenodd"/></symbol><symbol viewBox="0 0 21 20" id="registration-check-mark-password"><title>Path 6 Copy 10</title><path d="M0 10.75L2.978 7.5c3.307 4.083 4.92 6 4.838 5.75C7.733 13 10.959 8.583 17.492 0c2.565 1.75 3.724 2.667 3.475 2.75-.249.083-4.633 5.833-13.151 17.25L0 10.75z" fill="#6AC402" fill-rule="evenodd"/></symbol><symbol viewBox="0 0 31 31" id="registration-question"><title>Group 3</title><g fill="none" fill-rule="evenodd"><text font-family="Helvetica" font-size="21" letter-spacing=".75" fill="#BBBAC4" transform="translate(1 1)"><tspan x="8.285" y="22">?</tspan></text><path d="M15.5 30C7.492 30 1 23.508 1 15.5S7.492 1 15.5 1 30 7.492 30 15.5 23.508 30 15.5 30z" stroke-width="2"/></g></symbol><symbol viewBox="0 0 31 31" id="registration-question"><title>Group 3</title><g fill="none" fill-rule="evenodd"><text font-family="Helvetica" font-size="21" letter-spacing=".75" fill="#BBBAC4" transform="translate(1 1)"><tspan x="8.285" y="22">?</tspan></text><path d="M15.5 30C7.492 30 1 23.508 1 15.5S7.492 1 15.5 1 30 7.492 30 15.5 23.508 30 15.5 30z" stroke-width="2"/></g></symbol><symbol viewBox="0 0 68.135 65.211" id="search-loop"><path d="M68.135 61.803L53.068 46.735a29.228 29.228 0 0 0 5.693-17.355C58.762 13.18 45.582 0 29.381 0S0 13.18 0 29.38s13.18 29.38 29.381 29.38c7.977 0 15.217-3.2 20.518-8.378l14.828 14.829 3.408-3.408zm-38.754-7.862c-13.543 0-24.562-11.019-24.562-24.562S15.838 4.818 29.381 4.818 53.943 15.837 53.943 29.38 42.924 53.941 29.381 53.941z"/></symbol><symbol id="show-more-arrow" viewBox="0 0 15.7 9"><style>.dkst0{fill:#231f20}</style><path fill="#bfbfbf" class="dkst0" d="M7.7 8.7L.1 1.1.8.4l6.9 6.8 7.1-7 .7.7z"/></symbol><symbol viewBox="0 0 117.379 117.378" id="slider-arrow-button"><path fill="#E7E7E7" d="M52.875 82.736l-4.01-4.007 20.039-20.041L48.865 38.65l4.01-4.008 24.047 24.046z"/></symbol><symbol viewBox="0 0 92.843 82.342" id="slider-button"><path fill="#FFF" d="M51.673 0l-4.01 4.008L81.99 38.336H0v5.67h81.99L47.664 78.332l4.008 4.01 41.171-41.171z"/></symbol><symbol viewBox="0 0 117.379 117.378" id="slider-mobile-navigation-button"><path fill="#E7E7E7" d="M58.689 117.378C26.328 117.378 0 91.05 0 58.688S26.328 0 58.689 0s58.689 26.327 58.689 58.688-26.327 58.69-58.689 58.69zm0-114.544c-30.799 0-55.855 25.057-55.855 55.854 0 30.799 25.057 55.855 55.855 55.855s55.855-25.057 55.855-55.855c.001-30.797-25.056-55.854-55.855-55.854z"/><path fill="#70839E" d="M52.875 82.736l-4.01-4.007 20.039-20.041L48.865 38.65l4.01-4.008 24.047 24.046z"/></symbol><symbol viewBox="0 0 47.25 46.863" id="slider-mobile-navigation-grid"><path d="M19.25 0H28v8.75h-8.75zM0 0h8.75v8.75H0zm38.5 0h8.75v8.75H38.5zM19.25 19.057H28v8.75h-8.75zm-19.25 0h8.75v8.75H0zm38.5 0h8.75v8.75H38.5zM19.25 38.113H28v8.75h-8.75zm-19.25 0h8.75v8.75H0zm38.5 0h8.75v8.75H38.5z" fill="#C7CBD8"/></symbol><symbol viewBox="0 0 47.25 46.863" id="title-grid"><path d="M19.25 0H28v8.75h-8.75zM0 0h8.75v8.75H0zm38.5 0h8.75v8.75H38.5zM19.25 19.057H28v8.75h-8.75zm-19.25 0h8.75v8.75H0zm38.5 0h8.75v8.75H38.5zM19.25 38.113H28v8.75h-8.75zm-19.25 0h8.75v8.75H0zm38.5 0h8.75v8.75H38.5z"/></symbol><symbol viewBox="0 0 25 15" id="vacancies-arrow"><title>Path 3 Copy</title><path stroke-width="2" d="M24 1l-7.076 7.384L12.5 13 1 1" fill="none" fill-rule="evenodd"/></symbol><symbol id="vacancies-arrow-down" viewBox="0 0 15.7 9"><style/><path d="M7.7 8.7L.1 1.1.8.4l6.9 6.8 7.1-7 .7.7z"/></symbol><symbol viewBox="0 0 21 20" id="vacancies-check-mark"><title>Path 6 Copy</title><path d="M0 10.75L2.978 7.5c3.307 4.083 4.92 6 4.838 5.75C7.733 13 10.959 8.583 17.492 0c2.565 1.75 3.724 2.667 3.475 2.75-.249.083-4.633 5.833-13.151 17.25L0 10.75z" fill="#16398D" fill-rule="evenodd"/></symbol><symbol viewBox="0 0 67 61" id="vacancies-clip"><title>Page 1</title><path d="M37.253 59.757L7.712 30.217C4.148 26.651-2.546 17.05 7.483 7.02c10.03-10.03 20.376-1.913 22.453.164L59.88 37.13c7.73 7.73 5.989 14.743 1.984 18.748-9.157 9.157-18.506-2.227-18.506-2.227L18.242 28.535c-2.977-2.977-2.945-7.278-.11-10.114 3.901-3.9 7.915-1.461 9.9.523l22.593 22.594" stroke-width="3" fill="none" fill-rule="evenodd"/></symbol><symbol viewBox="0 0 39 39" id="vacancies-close-modal"><title>Group 12</title><path d="M1.38 1.001L38 37.621m-.38-36.62L1 37.621" stroke-width="2" fill="none" fill-rule="evenodd"/></symbol></svg>