<?xml version="1.0" standalone="no"?>
<!DOCTYPE svg PUBLIC "-//W3C//DTD SVG 20010904//EN"
 "http://www.w3.org/TR/2001/REC-SVG-20010904/DTD/svg10.dtd">
<svg version="1.0" xmlns="http://www.w3.org/2000/svg"
 width="512.000000pt" height="512.000000pt" viewBox="0 0 512.000000 512.000000"
 preserveAspectRatio="xMidYMid meet">

<g transform="translate(0.000000,512.000000) scale(0.100000,-0.100000)"
fill="#000000" stroke="none">
<path d="M410 5109 c-192 -31 -369 -212 -400 -409 -14 -89 -14 -4191 0 -4280
32 -202 208 -378 410 -410 89 -14 4191 -14 4280 0 202 32 378 208 410 410 14
89 14 4191 0 4280 -32 202 -208 378 -410 410 -82 12 -4210 12 -4290 -1z m2215
-1293 c165 -6 221 -22 269 -77 56 -66 59 -93 55 -542 -2 -221 0 -426 4 -454
12 -71 44 -117 84 -121 41 -4 87 37 195 173 167 209 293 424 413 709 66 156
90 191 143 206 46 12 811 13 866 0 97 -22 123 -79 87 -193 -49 -152 -96 -229
-375 -607 -245 -334 -294 -407 -311 -462 -25 -86 -19 -96 239 -357 428 -436
527 -598 435 -715 -59 -75 -166 -88 -594 -76 -395 12 -402 15 -630 251 -242
251 -300 305 -347 323 -41 16 -48 16 -81 3 -56 -24 -83 -90 -112 -277 -27
-173 -34 -199 -70 -234 -51 -52 -97 -59 -317 -53 -110 3 -232 12 -283 21 -219
40 -441 133 -625 264 -89 63 -282 244 -365 342 -276 327 -597 873 -879 1495
-59 131 -67 156 -63 194 3 29 13 52 31 70 l27 26 346 -2 c197 -1 369 -7 398
-13 92 -19 135 -71 210 -250 49 -119 156 -323 234 -448 151 -244 267 -380 339
-399 57 -14 92 51 113 212 13 103 6 566 -9 628 -21 82 -77 132 -181 163 -72
21 -77 57 -17 122 52 58 110 73 306 81 162 6 204 6 465 -3z"/>
</g>
</svg>
