<?xml version="1.0" encoding="UTF-8"?>
<!DOCTYPE svg PUBLIC "-//W3C//DTD SVG 1.1//EN" "http://www.w3.org/Graphics/SVG/1.1/DTD/svg11.dtd">
<!-- Creator: CorelDRAW 2019 (64-Bit) -->
<svg xmlns="http://www.w3.org/2000/svg" xml:space="preserve" width="83.4414mm" height="22.5168mm" version="1.1" style="shape-rendering:geometricPrecision; text-rendering:geometricPrecision; image-rendering:optimizeQuality; fill-rule:evenodd; clip-rule:evenodd"
viewBox="0 0 8344.14 2251.68"
 xmlns:xlink="http://www.w3.org/1999/xlink"
 xmlns:xodm="http://www.corel.com/coreldraw/odm/2003">
 <defs>
  <style type="text/css">
   <![CDATA[
    .fil1 {fill:#4EB7D9}
    .fil3 {fill:#7CCDE7}
    .fil2 {fill:#A2DDEF}
    .fil0 {fill:#D8D9D9}
    .fil4 {fill:#7CCDE7;fill-rule:nonzero}
   ]]>
  </style>
 </defs>
 <g id="Слой_x0020_1">
  <metadata id="CorelCorpID_0Corel-Layer"/>
  <path class="fil0" d="M6731.87 1734.6c112.11,0 213.14,-23.96 303.14,-70.2l0 -283.96c-77.37,59.02 -173.68,89.36 -290.55,89.36 -96.27,0 -177.2,-28.4 -241.55,-87.73 -63.43,-58.63 -94.72,-135.65 -94.72,-228.14 0,-90.9 31.58,-167.49 93.17,-226.55 61.56,-58.98 138.89,-89.32 232.09,-89.32 102.63,0 195.79,27.16 282.61,81.38l0 -282.39c-86.82,-43.04 -181.57,-63.79 -285.78,-63.79 -176.85,0 -324.03,53.87 -440.52,162.74 -115.57,108.02 -173.67,247.23 -173.67,417.93 0,170.71 58.46,309.49 175.23,417.93 116.84,108.45 263.7,162.74 440.55,162.74z"/>
  <polygon class="fil0" points="5993.5,581.74 5709.3,581.74 5709.3,1712.49 5993.5,1712.49 "/>
  <polygon class="fil0" points="4374.14,1712.46 4374.14,1457.26 3805.75,1457.26 3805.75,1235.96 4247.85,1235.96 4247.85,990.44 3805.75,990.44 3805.75,836.98 4361.55,836.98 4361.55,581.71 3521.55,581.71 3521.55,1712.46 "/>
  <polygon class="fil0" points="2504.74,1712.46 2504.74,1147.1 2504.74,1022.72 2588.18,1147.1 2588.14,1147.1 2787.78,1444.81 2864.72,1326.41 2864.72,1326.41 2922.82,1237.02 3062.06,1022.72 3062.06,1712.46 3344.71,1712.46 3344.71,581.71 3063.68,581.71 2782.63,1016.3 2503.16,581.71 2220.55,581.71 2220.55,1712.46 2379.97,1712.46 "/>
  <path class="fil0" d="M7427 1712.46l94.79 -237.7 417.58 0 94.75 237.7 310.02 0 -472.22 -1130.75 -277.84 0 -472.23 1130.75 305.15 0zm303.57 -769.33l117.25 300.35 -234.48 0 117.23 -300.35z"/>
  <path class="fil0" d="M4974.22 1712.46c183.09,0 332.46,-51.68 448.13,-156.71 115.64,-104.95 173.45,-242.28 173.45,-408.62 0,-166.39 -57.81,-302.07 -173.45,-407.09 -115.67,-104.99 -265.04,-158.33 -448.13,-158.33l-448.1 0 0 1130.75 448.1 0zm-159.03 -875.52l138.15 0c218.44,0 343.71,111.48 343.71,310.19 0,198.69 -125.27,310.13 -343.71,310.13l-138.15 0 0 -620.32z"/>
  <polygon class="fil1" points="4352.27,1684.38 4352.27,1429.18 3783.87,1429.18 3783.87,1207.88 4225.97,1207.88 4225.97,962.36 3783.87,962.36 3783.87,808.9 4339.67,808.9 4339.67,553.63 3499.67,553.63 3499.67,1684.38 "/>
  <polygon class="fil1" points="2482.87,1684.38 2482.87,1119.02 2482.87,994.64 2566.3,1119.02 2566.26,1119.02 2765.9,1416.72 2842.84,1298.33 2842.84,1298.33 2900.94,1208.94 3040.19,994.64 3040.19,1684.38 3322.83,1684.38 3322.83,553.63 3041.81,553.63 2760.75,988.22 2481.28,553.63 2198.67,553.63 2198.67,1684.38 2358.09,1684.38 "/>
  <g>
   <path class="fil0" d="M992.49 282.23l735.32 424.61 0 848.38 -735.32 424.61 -735.33 -424.61 0 -848.38 735.33 -424.61zm389.21 624l-5.15 3.42 -6.07 3.46 -5.15 2.61 -5.18 3.45 -5.19 2.58 -6.03 3.46 -5.19 3.45 -5.18 2.58 -5.19 3.46 -6.03 2.57 -5.19 3.46 -5.15 3.46 -5.19 2.57 -6.03 3.46 -5.18 2.61 -2.61 1.73 -2.58 1.73 -5.19 3.42 -6.03 2.61 -5.18 3.46 102.69 -59.55zm236.5 -136.39l-5.18 2.61 5.18 -2.61zm-1256.58 -3.45l0 0 0 729.28 630.87 364.21 631.74 -364.21 0 -729.28 -5.18 3.45 -0.85 0 -4.34 2.61 -0.84 0 -4.34 2.58 -0.85 0.88 -4.3 2.58 -0.89 0.84 -4.3 1.73 -1.73 0.88 -3.46 2.58 -1.72 0.88 -3.46 1.73 -1.73 0.85c-96.66,56.09 -193.32,110.45 -289.1,166.58l-18.98 10.33 0.85 0.89 141.53 81.1 0 331.42 -428.05 246.81 -428.06 -246.81 0 -494.51c0,0 577.35,-333.16 631.74,-364.21 -68.19,-38.84 -135.49,-78.56 -203.68,-117.37l-630.87 364.18zm630.87 1485.29l970.91 -560.11 0 -1121.08 -970.91 -560.11 -970.07 560.11 0 1121.08 970.07 560.11z"/>
  </g>
  <path class="fil2" d="M970.91 271.88l734.44 424.6 0 848.38 -734.44 424.61 -735.33 -424.61 0 -848.38 735.33 -424.6zm0 -271.86l970.06 560.11 0 1121.08 -970.06 560.11 -970.91 -560.11 0 -1121.08 970.91 -560.11z"/>
  <polygon class="fil3" points="970.91,2241.33 -0,1681.23 -0,560.14 235.58,696.49 235.58,1544.84 970.91,1969.48 "/>
  <polygon class="fil3" points="339.17,756.05 339.17,1485.3 970.92,1849.51 970.92,1614.77 542.86,1367.93 542.86,873.41 "/>
  <path class="fil1" d="M1601.79 756.05l0 729.25 -630.86 364.21 0 -234.74 428.05 -246.84 0 -331.39 -141.54 -81.14c114.8,-66.43 229.56,-132.89 344.35,-199.35z"/>
  <path class="fil2" d="M1601.79 756.05l-38.84 22.43 -287.37 165.7 -18.14 11.22 -0.88 -0.85 19.02 -10.37c107.88,-63 217.48,-125.13 326.21,-188.13zm-1058.96 117.36l-203.66 -117.36 631.76 -364.21c67.31,38.84 134.62,78.53 202.8,117.37 -54.4,31.08 -630.9,364.2 -630.9,364.2z"/>
  <polygon class="fil1" points="970.91,2241.33 1940.97,1681.23 1940.97,560.14 1705.35,696.49 1705.35,1544.84 970.91,1969.48 "/>
  <path class="fil3" d="M1705.36 696.49l0 848.35 -734.44 424.64 -722.39 -416.84 735.33 424.6 735.29 -424.6 0 -848.39 -13.79 -7.76zm-306.39 340.89l0 330.54 -428.05 246.84 -415.12 -239.07 428.06 246.83 428.06 -246.83 0 -330.51 -12.95 -7.8zm202.81 -265.82l0 -15.52 -5.19 3.46 -5.15 2.57 -0.88 0 -4.3 3.46 -0.88 0 -4.31 2.61 -0.84 0.85 -4.34 1.73 -0.85 0.84 -4.3 2.61 -1.73 0.85 -2.61 1.73 -2.58 1.73c-95.81,55.24 -192.47,109.61 -288.25,165.7l-18.98 10.37 0.84 0.85 12.1 6.91 18.98 -10.37c95.78,-56.09 192.44,-110.46 289.1,-165.7l1.73 -1.73 3.46 -1.73 1.73 -0.84 3.46 -2.58 1.73 -0.88 3.45 -1.73 1.73 -0.85 4.3 -2.61 0.85 0 1.73 -1.73zm-1262.62 -15.52l0 0 0 729.25 13.83 7.77 0 -729.26 630.87 -364.2 189.86 109.6c-68.18,-38.84 -135.49,-78.53 -202.8,-117.37l-631.76 364.21zm1601.82 -195.05l0 -0.85 -970.06 -560.14 -970.92 560.14 0 1121.09 13.8 7.76 0 -1121.08 970.06 -560.11 957.12 553.19zm-581.7 334.86l231.28 -133.78 -236.47 137.23 -5.18 3.46 -6.03 2.58 -5.19 3.45 -5.19 2.62 -5.15 3.42 -6.06 3.45 -5.15 2.61 -5.19 3.46 -5.19 2.58 -6.03 3.45 -5.18 3.46 -5.19 2.58 -5.19 3.45 -5.15 2.58 -3.45 1.73 -2.61 1.73 -5.15 3.45 -5.19 2.58 -5.19 3.46 101.85 -59.55z"/>
  <polygon class="fil4" points="4170.11,1683.5 4352.25,1683.5 4352.25,1428.3 3783.89,1428.3 3783.89,1207 4225.96,1207 4225.96,961.47 3783.89,961.47 3783.89,808.02 4339.66,808.02 4339.66,552.75 3499.69,552.75 3499.69,1296.43 "/>
  <polygon class="fil4" points="3022.54,1020.95 3040.21,993.78 3040.21,1031.14 3322.86,1194.33 3322.86,552.77 3041.8,552.77 2816.09,901.74 "/>
  <path class="fil4" d="M4793.33 1428.28l0 -620.28 138.14 0c218.44,0 343.72,111.48 343.72,310.16 0,198.68 -125.28,310.12 -343.72,310.12l-138.14 0zm607.16 98.53c115.64,-104.98 173.46,-242.29 173.46,-408.65 0,-166.4 -57.82,-302.08 -173.46,-407.1 -115.67,-104.99 -265.04,-158.29 -448.13,-158.29l-448.14 0 0 1130.71 448.14 0c183.09,0 332.46,-51.65 448.13,-156.67z"/>
  <polygon class="fil4" points="5687.43,1683.49 5971.63,1683.49 5971.63,552.74 5687.43,552.74 "/>
  <path class="fil4" d="M7591.46 1214.51l117.23 -300.35 117.26 300.35 -234.49 0zm258.58 -661.74l-277.84 0 -472.23 1130.72 305.15 0 94.8 -237.7 417.57 0 94.79 237.7 309.99 0 -472.23 -1130.72z"/>
  <polygon class="fil4" points="2640.52,800.39 2481.28,552.77 2211.62,552.77 "/>
  <path class="fil4" d="M6481.04 1353.09c-63.43,-58.6 -94.72,-135.65 -94.72,-228.14 0,-90.91 31.58,-167.46 93.14,-226.51 61.59,-59.02 138.92,-89.36 232.09,-89.36 102.66,0 195.83,27.16 282.64,81.42l0 -282.4c-86.81,-43.07 -181.57,-63.78 -285.78,-63.78 -176.85,0 -324.03,53.87 -440.51,162.7 -115.57,108.02 -173.68,247.23 -173.68,417.93 0,170.74 58.46,309.52 175.23,417.93 116.84,108.45 263.7,162.77 440.55,162.77 112.11,0 213.14,-23.95 303.14,-70.2l0 -283.99c-77.37,59.02 -173.67,89.4 -290.55,89.4 -96.27,0 -177.2,-28.44 -241.55,-87.77z"/>
 </g>
</svg>
