<svg width="64px" height="57px" viewBox="0 0 64 57" version="1.1" xmlns="http://www.w3.org/2000/svg" xmlns:xlink="http://www.w3.org/1999/xlink">
    <g id="Page-1" stroke="none" stroke-width="1" fill="none" fill-rule="evenodd">
        <g id="claim" fill="#2B3A8F" fill-rule="nonzero">
            <path d="M64,50.0487805 C64,53.8886341 60.8862609,57 57.0434783,57 L6.95652174,57 C3.11373913,57 0,53.8886341 0,50.0487805 L0,9.73170732 C0,6.66065854 2.49182609,4.17073171 5.56521739,4.17073171 L33.6292174,4.17073171 L44.8973913,0.0917560976 C45.6111304,-0.168219512 46.4013913,0.200195122 46.6615652,0.910609756 L47.8483478,4.17073171 L52.8695652,4.17073171 C55.9429565,4.17073171 58.4347826,6.66065854 58.4347826,9.73170732 L58.4347826,12.5121951 C61.5081739,12.5121951 64,15.002122 64,18.0731707 L64,50.0487805 Z M5.56521739,6.95121951 C4.02921739,6.95121951 2.7826087,8.19687805 2.7826087,9.73170732 C2.7826087,11.2665366 4.02921739,12.5121951 5.56521739,12.5121951 L10.3582609,12.5121951 L10.6212174,12.5121951 C10.6393043,12.5052439 10.6504348,12.4899512 10.6685217,12.483 L25.9478261,6.95121951 L5.56521739,6.95121951 Z M46.0215652,7.20285366 L44.544,3.13778049 L44.5426087,3.13778049 L41.6890435,4.17073171 L41.6932174,4.17073171 L34.0215652,6.95121951 L34.0076522,6.95121951 L18.6490435,12.5121951 L47.9526957,12.5121951 L46.0215652,7.20285366 Z M55.6521739,9.73170732 C55.6521739,8.19687805 54.4055652,6.95121951 52.8695652,6.95121951 L48.8584348,6.95121951 L50.8813913,12.5121951 L55.6521739,12.5121951 L55.6521739,9.73170732 Z M58.4347826,15.2926829 L5.56521739,15.2926829 C4.54678261,15.2926829 3.60347826,14.9993415 2.7826087,14.5210976 L2.7826087,50.0487805 C2.7826087,52.3524146 4.65252174,54.2195122 6.95652174,54.2195122 L57.0434783,54.2195122 C59.3488696,54.2195122 61.2173913,52.3524146 61.2173913,50.0487805 L61.2173913,40.3170732 L55.6521739,40.3170732 C52.5787826,40.3170732 50.0869565,37.8271463 50.0869565,34.7560976 C50.0869565,31.6850488 52.5787826,29.195122 55.6521739,29.195122 L61.2173913,29.195122 L61.2173913,18.0731707 C61.2173913,16.5383415 59.9707826,15.2926829 58.4347826,15.2926829 Z M61.2173913,37.5365854 L61.2173913,31.9756098 L55.6521739,31.9756098 C54.1161739,31.9756098 52.8695652,33.2212683 52.8695652,34.7560976 C52.8695652,36.2909268 54.1161739,37.5365854 55.6521739,37.5365854 L61.2173913,37.5365854 Z M55.6521739,33.3658537 L58.4347826,33.3658537 L58.4347826,36.1463415 L55.6521739,36.1463415 L55.6521739,33.3658537 Z" id="Shape"></path>
        </g>
    </g>
</svg>