<svg width="64px" height="56px" viewBox="0 0 64 56" version="1.1" xmlns="http://www.w3.org/2000/svg"
     xmlns:xlink="http://www.w3.org/1999/xlink">
    <g id="Page-1" stroke="none" stroke-width="1" fill="none" fill-rule="evenodd">
        <g id="doctor" fill="#2B3A8F" fill-rule="nonzero">
            <path d="M8,55.2186667 L8,42.6666667 L4,42.6666667 C1.79466667,42.6666667 0,40.872 0,38.6666667 L0,4 C0,1.79466667 1.79466667,0 4,0 L60,0 C62.2053333,0 64,1.79466667 64,4 L64,38.6666667 C64,40.872 62.2053333,42.6666667 60,42.6666667 L20.552,42.6666667 L8,55.2186667 Z M4,2.66666667 C3.264,2.66666667 2.66666667,3.264 2.66666667,4 L2.66666667,38.6666667 C2.66666667,39.4026667 3.264,40 4,40 L10.6666667,40 L10.6666667,48.7813333 L19.448,40 L60,40 C60.736,40 61.3333333,39.4026667 61.3333333,38.6666667 L61.3333333,4 C61.3333333,3.264 60.736,2.66666667 60,2.66666667 L4,2.66666667 Z"
                  id="Shape"></path>
            <circle id="Oval" cx="21.3333333" cy="21.3333333" r="2.66666667"></circle>
            <circle id="Oval" cx="42.6666667" cy="21.3333333" r="2.66666667"></circle>
            <circle id="Oval" cx="32" cy="21.3333333" r="2.66666667"></circle>
        </g>
    </g>
</svg>