<?xml version="1.0" encoding="utf-8"?>
<!-- Generator: Adobe Illustrator 26.0.2, SVG Export Plug-In . SVG Version: 6.00 Build 0)  -->
<svg version="1.1" id="Слой_1" xmlns="http://www.w3.org/2000/svg" xmlns:xlink="http://www.w3.org/1999/xlink" x="0px" y="0px"
	 viewBox="0 0 100 100" style="enable-background:new 0 0 100 100;" xml:space="preserve">
<style type="text/css">
	.st0{fill:#7ECCD8;}
</style>
<path class="st0" d="M69.1,76.4c0-2.8-1.9-4.8-4.8-4.9c-0.6,0-1.4,0-2.2,0c-1.8,0.1-3.2,0.9-4,2.3c-0.4,0.7-0.5,1.5-0.7,2.2
	l-0.1,0.3c-0.1,0.4-0.3,0.8-0.7,0.8c-1.3,0-2.7,0-4,0c-0.7,0-1-0.3-1-1c0-0.8,0-1.7,0-2.5c0.3,0,0.5,0,0.8,0c0.4,0,0.8,0,1.2-0.1
	c1.2-0.1,1.8-0.9,1.8-2c0-0.2,0-0.5,0-0.7c0-0.2,0-0.4,0-0.6c0.8,0,1.6-0.1,2.4-0.2c5.7-1.1,9.6-5.9,9.7-11.7c0-2.7,0-5.4,0-8.2
	l0-3.3c0-5.8,0-11.5,0-17.3c0-1.9-0.7-2.6-2.6-2.6c-1,0-1.9,0-2.9,0c-1.4,0-2.9,0-4.3,0c0,0,0,0,0,0c-0.1-0.4-0.1-0.8-0.1-1.2
	c0.2-1.9-0.7-3.5-1.4-4.5c-1.6-2.4-4.1-3.5-7.4-3.4c-4.7,0.1-8.2,3.7-8.2,8.3v0.8l-2.5,0c-1.6,0-3.2,0-4.7,0c-1.8,0-2.5,0.7-2.5,2.5
	l0,7.1c0,7.2,0,14.4,0,21.6c0,6.5,5.1,11.8,11.7,12c0.4,0,0.9,0,1.1,0.1c0,0.2,0,0.7,0,1.2c0,1.3,0.6,2,1.9,2.1c0.3,0,0.6,0,0.9,0
	c0.2,0,0.4,0,0.7,0c0.2,0,0.3,0,0.4,0c0,0.1,0,0.2,0,0.4c0,0.3,0,0.6-0.1,0.9c0,0.4-0.1,0.8-0.1,1.3c0,2.9,2,5,4.9,5
	c1.3,0,2.6,0,3.7,0c3,0,4.9-1.7,5.2-4.8c0.1-0.6,0.3-0.8,0.9-0.8c0.5,0,0.9,0,1.4,0l0.3,0c0.8,0,1,0.2,1,1c0,1.1,0,2.3,0,3.4
	c0,1.1,0,2.2,0,3.3c0,1.4,0.8,2.4,2,2.4c0,0,0,0,0,0c0.7,0,1.1-0.3,1.4-0.5c0.4-0.4,0.6-1,0.6-1.8C69.1,81,69.1,78.7,69.1,76.4z
	 M53.8,26.9c-1.1,0-2.2,0-3.3,0l-2.6,0c-1.1,0-2.1,0-3.2,0c0.1-0.4,0.1-0.7,0.1-1.1c0-0.4,0-0.8,0.2-1.2c0.6-1.6,1.8-2.5,3.5-2.7
	c2.1-0.3,3.6,0.3,4.7,1.9c0.5,0.8,0.6,1.6,0.7,2.6C53.8,26.5,53.8,26.7,53.8,26.9z M35,31.1c0-0.1,0-0.1,0-0.2c0,0,0.1,0,0.2,0
	c3.6,0,7.2,0,10.7,0l3.8,0l3.5,0c3.4,0,6.8,0,10.2,0c0,0,0,0,0,0c0,0,0,0,0,0c-0.1,0.9-0.1,1.8,0,2.7c-2,0-4.1,0-6.1,0l-2.1,0
	l-0.1,0c-0.2,0-0.4,0-0.7,0c-1.2,0.1-1.9,0.8-2,2c-0.1,1.1,0.8,2,2,2.1c0.2,0,0.4,0,0.6,0l0.2,0l2.2,0c2,0,4,0,6,0c0,0.7,0,1.4,0,2
	c-2,0-4.1,0-6.1,0l-2.1,0l-0.2,0c-0.2,0-0.4,0-0.5,0c-1.2,0-2,0.8-2,1.9c-0.1,1.1,0.8,2,2,2.1c0.2,0,0.4,0,0.6,0l0.2,0l2.2,0
	c2,0,4,0,6,0c0,0.7,0,1.3,0,2c0,0,0,0,0,0c0,0,0,0-0.1,0c-2,0-4.1,0-6.1,0l-2.2,0l-0.2,0c-0.2,0-0.5,0-0.7,0c-1.1,0.2-1.8,1-1.8,2.1
	c0,1.1,0.8,2,2,2c1.4,0,2.9,0,4.3,0l4.8,0c0,0,0,0,0,0c0,0.2,0,0.4-0.1,0.7c0,0.4-0.1,0.9-0.1,1.4c-2.1,0-4.1,0-6.2,0l-2.1,0l-0.2,0
	c-0.2,0-0.4,0-0.5,0c-1.2,0.1-2,1-2,2.1c0.1,1.1,0.8,1.9,2,2c0.2,0,0.4,0,0.6,0l0.2,0l2.1,0c2,0,4,0,6,0c0,0.7,0,1.3,0,2
	c-1.5,0-3,0-4.5,0l-3.8,0c-2.4,0-2.6,1.4-2.6,2c0,0.5,0.2,1,0.5,1.4c0.5,0.5,1.2,0.7,2.2,0.7h7.3c-0.9,1.7-2.2,2.9-3.8,3.5
	c-1,0.4-2.2,0.6-3.3,0.7c-3.3,0.1-6.7,0.1-10,0l-2.1,0c-4.7,0-8.1-3.4-8.1-8.1c0-1.3,0-2.6,0-3.9l0-6.7C35.1,42,35.1,36.6,35,31.1z"
	/>
</svg>
