<svg id="Слой_1" data-name="Слой 1" xmlns="http://www.w3.org/2000/svg" viewBox="0 0 50.02 57"><defs><style>.cls-1{fill:#fff}.cls-2{fill:#234089}</style></defs><title>Безымянный-3</title><path class="cls-1" d="M25 57L0 42.75v-28.5L25 0l25 14.28v28.53z"/><path class="cls-2" d="M25 3.49L3 16v25l22 12.5 22-12.44v-25zM14.35 31.85H13.2v-.6a2.2 2.2 0 0 1-1.72.74 1.81 1.81 0 0 1-1.85-1.85 1.75 1.75 0 0 1 1.85-1.81 2.15 2.15 0 0 1 1.72.67v-.79a1.08 1.08 0 0 0-1.25-1 2.13 2.13 0 0 0-1.58.7L9.9 27a3.09 3.09 0 0 1 2.24-.9 1.93 1.93 0 0 1 2.22 2v3.7zm5.27 0L18 29.55l-.74.8v1.5h-1.17v-5.58h1.16V29l2.35-2.69H21l-2.18 2.49 2.26 3h-1.46zm7.86 1.42h-1.16v-1.42h-4.19v-5.58h1.16v4.52h2.45v-4.52h1.16v4.52h.58v2.48zm5.95-1.42h-1.16V28l-2.49 3.86h-1.11v-5.59h1.16V30l2.45-3.75h1.16v5.58zm6.43 0H38.7v-2h-1.23l-1.17 2H35l1.31-2.08A1.65 1.65 0 0 1 35 28a1.68 1.68 0 0 1 1.76-1.78h3v5.58zM36.23 28a.68.68 0 0 0 .73.72h1.74v-1.39H37a.69.69 0 0 0-.77.67zm-24.3 1.11a1 1 0 1 0 0 2 1.53 1.53 0 0 0 1.27-.58v-.8a1.53 1.53 0 0 0-1.27-.57z"/></svg>