<?xml version="1.0" encoding="utf-8"?>
<!-- Generator: Adobe Illustrator 21.0.0, SVG Export Plug-In . SVG Version: 6.00 Build 0)  -->
<svg version="1.1" id="Слой_1" xmlns="http://www.w3.org/2000/svg" xmlns:xlink="http://www.w3.org/1999/xlink" x="0px" y="0px"
	 viewBox="0 0 100 100" style="enable-background:new 0 0 100 100;" xml:space="preserve">
<style type="text/css">
	.st0{fill:#7ECCD8;}
</style>
<path class="st0" d="M69,49.3c-2.8-0.8-6.1-0.5-8.8,0.1c-0.9-2-2.3-3.7-4.2-4.8c1.3-2.5,2.5-5.8,2.5-8.9c0-8-5.8-10.1-8.8-10.1
	c-2.9,0-8.4,2-8.8,9.3c-5.9-4.3-10.9-1.3-12.7,1c-1.9,2.3-3.8,7.8,1.7,12.7c-3.8,1-5.6,3.1-6.5,4.8c-1.3,2.6-0.9,5-0.8,5.7l0,0
	c0.1,0.7,0.8,3.1,3.1,4.9c1.2,1,3.1,1.9,5.8,1.9c0.6,0,1.3-0.1,2-0.2c-1.6,3.6-1.1,6.3-0.3,8c1.2,2.6,3.3,3.9,3.9,4.2
	c1,0.5,2.4,0.9,4,0.9c2.7,0,5.8-1.2,8.1-5.2c2.2,4.3,5.5,5.6,8.3,5.6c1.4,0,2.6-0.3,3.5-0.7l-0.8-1.8l0.8,1.8
	c2.7-1.2,6.9-5.2,4.3-12c0.9,0.2,1.8,0.3,2.6,0.3c5.4,0,7.9-3.9,8.6-6.4l-1.9-0.5l1.9,0.5C77.3,57.5,76.8,51.4,69,49.3z M49.7,29.6
	c0.5,0,4.8,0.2,4.8,6.1c0,2.5-1.2,5.4-2.4,7.6c-0.3,0-0.6-0.1-0.9-0.1c-1.3-0.1-2.6,0.1-3.8,0.6c-1.2-2.2-2.6-5.3-2.6-8
	C44.9,29.7,49.2,29.6,49.7,29.6z M31.3,38.4c0.3-0.4,3.2-3.6,7.8,0.1c2.2,1.8,3.8,5.1,4.8,7.5c-0.9,0.9-1.7,2-2.3,3.2
	c-2.7-0.4-6.3-1.4-8.5-3.1C28.4,42.2,31,38.7,31.3,38.4z M33.5,61.7c-2.2,0.5-4,0.2-5.3-0.8c-1-0.8-1.5-1.9-1.7-2.6
	c-0.2-0.7-0.1-2,0.4-3.1c0.7-1.5,2.3-2.4,4.5-2.9c2.9-0.6,6.7,0.3,9.1,1.1c0,1.3,0.2,2.5,0.7,3.7C39.4,58.7,36.4,61,33.5,61.7z
	 M46,71.2c-2.7,5.3-6.6,3.5-7.1,3.2c-0.7-0.3-1.6-1.1-2.1-2.3c-0.7-1.5-0.5-3.3,0.6-5.3c1.3-2.5,4.1-4.8,6.3-6.2
	c1.1,1,2.3,1.8,3.7,2.3C47.4,65.4,47.3,68.8,46,71.2z M51.4,59.5c-0.2,0-0.3,0-0.5,0c-1,0-1.9-0.2-2.7-0.6c0,0,0,0,0,0.1
	c-2.2-1-3.6-3.3-3.5-5.9c0-0.1,0-0.2,0-0.3c0-0.1,0-0.2,0-0.3c0-0.1,0-0.2,0-0.3c0.5-2.9,3.1-5.1,6.2-5.1c3.5,0,6.3,2.8,6.3,6.3
	c0,2.7-1.7,5-4.2,5.9l0,0c0,0-0.1,0-0.1,0c-0.1,0-0.2,0.1-0.4,0.1C52.2,59.4,51.8,59.5,51.4,59.5L51.4,59.5z M59.4,74.9L59.4,74.9
	c-0.5,0.2-4.5,1.8-6.9-3.6c-1-2.3-1.1-5.4-0.9-7.8c1.8-0.1,3.5-0.7,4.9-1.7c1.9,1.5,3.9,3.5,4.8,5.6C63.7,72.8,59.8,74.7,59.4,74.9z
	 M72.6,59.4c-0.1,0.5-1.4,4.6-7.1,3.1c-2.2-0.6-4.4-2.2-6.1-3.7c1-1.5,1.5-3.2,1.6-5c0-0.2,0-0.3,0-0.5c2.3-0.4,4.9-0.7,7-0.1
	C73.7,54.7,72.8,58.9,72.6,59.4L72.6,59.4z M82.2,32.2c-0.4-2.9-2.2-4.6-2.7-5.1c-0.5-0.5-2.5-2-5.3-2.2c-2-0.1-5,0.5-8,3.7
	c-4,4.5-5.6,13.4-5.6,13.8l-0.2,1.1l4.7,4.3l1.1-0.3c0.4-0.1,9.1-2.5,13.2-7C82.2,37.2,82.5,34.2,82.2,32.2z M76.3,37.8
	c-2.4,2.6-7.5,4.6-10.2,5.5L64.7,42c0.6-2.8,2.1-8.1,4.5-10.7c1.5-1.7,3.2-2.5,4.8-2.4c1.3,0.1,2.3,0.7,2.9,1.2v0
	c0.5,0.5,1.2,1.5,1.4,2.7C78.5,34.4,77.8,36.1,76.3,37.8z"/>
</svg>
