<?xml version="1.0" encoding="utf-8"?>
<!-- Generator: Adobe Illustrator 22.1.0, SVG Export Plug-In . SVG Version: 6.00 Build 0)  -->
<svg version="1.1" id="Слой_1" xmlns="http://www.w3.org/2000/svg" xmlns:xlink="http://www.w3.org/1999/xlink" x="0px" y="0px"
	 viewBox="0 0 100 100" style="enable-background:new 0 0 100 100;" xml:space="preserve">
<style type="text/css">
	.st0{clip-path:url(#SVGID_2_);fill:#7ECCD8;}
</style>
<title>1</title>
<g>
	<g>
		<g>
			<g>
				<defs>
					<rect id="SVGID_1_" x="22" y="22.8" width="67" height="54.4"/>
				</defs>
				<clipPath id="SVGID_2_">
					<use xlink:href="#SVGID_1_"  style="overflow:visible;"/>
				</clipPath>
				<path class="st0" d="M51.9,65.1L50,61.6l30.4-16.5l1.9,3.5L51.9,65.1z M41.9,70.3c-2.9,1.5-6.2,1.8-9.4,0.9l-0.2-0.1l14.2-7.7
					l0.6,1.2C46,67,44.2,69,41.9,70.3z M31.1,76c6.9,2.1,14.4-0.4,18.7-6.2l0.7,1.4l37.9-20.4l-6.6-12.2L44.1,59.1L22.5,70.7l3,2.4
					C27.2,74.4,29.1,75.4,31.1,76z M58.3,38.5l-7.2,4c-0.3-0.2-0.7-0.3-1.1-0.3c-0.4,0-0.8,0.1-1.1,0.3l-7.2-4
					c-0.7-0.4-1.5-0.1-1.9,0.5c-0.4,0.7-0.1,1.5,0.5,1.9l7.3,4.1c0.2,1.1,1.2,1.9,2.3,1.9s2.1-0.8,2.3-1.9l7.3-4.1
					c0.7-0.4,0.9-1.2,0.5-1.9C59.9,38.3,59,38.1,58.3,38.5z M50.1,23.3c-11.7,0-21.2,9.5-21.2,21.2c0,5.6,2.2,10.7,5.8,14.5l4.2-2.1
					c-1-0.9-1.9-1.9-2.6-3.1l1.9-1.1c0.5-0.3,0.7-1,0.4-1.5s-1-0.7-1.5-0.4l-1.9,1.1c-1-2-1.6-4.3-1.7-6.7h1.8
					c0.2,0,0.3-0.1,0.4-0.2c0.1-0.1,0.2-0.3,0.2-0.4c0-0.3-0.3-0.6-0.6-0.6h-1.8c0.1-2.5,0.7-4.8,1.7-6.9l1.9,1.1
					c0.2,0.1,0.4,0.2,0.6,0.2c0.4,0,0.8-0.2,1-0.6c0.3-0.5,0.1-1.2-0.4-1.5l-1.9-1.1c1.3-1.9,3-3.6,5-4.9l0.9,1.6
					c0.1,0.1,0.1,0.2,0.2,0.2c0.2,0.1,0.4,0.1,0.6,0c0.1-0.1,0.2-0.2,0.3-0.4c0-0.2,0-0.3-0.1-0.4l-0.9-1.6c2-1.1,4.3-1.8,6.8-1.9
					V30c0,0.6,0.5,1.1,1.1,1.1s1.1-0.5,1.1-1.1v-2.2c2.4,0.2,4.7,0.8,6.7,1.9L57,31.3c-0.2,0.3-0.1,0.6,0.2,0.8
					c0.1,0.1,0.2,0.1,0.3,0.1c0.2,0,0.4-0.1,0.5-0.3l0.9-1.6c2,1.3,3.8,2.9,5.1,4.9l-1.9,1.1c-0.5,0.3-0.7,1-0.4,1.5
					c0.2,0.4,0.6,0.6,1,0.6c0.2,0,0.4,0,0.6-0.2l1.9-1.1c0.8,1.7,1.4,3.5,1.6,5.5l4.2-2.1C69,30.7,60.4,23.3,50.1,23.3z"/>
			</g>
		</g>
	</g>
</g>
</svg>
