<?xml version="1.0" encoding="utf-8"?>
<!-- Generator: Adobe Illustrator 16.0.0, SVG Export Plug-In . SVG Version: 6.00 Build 0)  -->
<!DOCTYPE svg PUBLIC "-//W3C//DTD SVG 1.1//EN" "http://www.w3.org/Graphics/SVG/1.1/DTD/svg11.dtd">
<svg version="1.1" id="Слой_1" xmlns="http://www.w3.org/2000/svg" xmlns:xlink="http://www.w3.org/1999/xlink" x="0px" y="0px"
	 width="402px" height="408px" viewBox="78.14 205.445 402 408" enable-background="new 78.14 205.445 402 408"
	 xml:space="preserve">
<path fill="#7ECCD8" d="M372.618,368.152l17.741-17.743l-66.114-66.112l-17.741,17.743l9.768,9.767l-20.897,20.897l-11.246-11.246
	l-17.743,17.743l3.477,3.477l-68.001,68.001l8.721,33.466l-38.662,39.43c1.852,8.846,4.205,20.93,5.665,28.516l0.816,0.795
	l50.356-51.438l34.523,6.768l65.569-66.549l6.179,6.178l17.742-17.743l-11.74-11.74l20.898-20.898L372.618,368.152z
	 M254.873,440.996l-20.213-3.963l-4.893-18.775l57.839-57.838l23.501,23.501L254.873,440.996z M323.287,360.618l-10.171-10.171
	l20.897-20.897l10.171,10.171L323.287,360.618z"/>
</svg>
