<svg id="Слой_1" data-name="Слой 1" xmlns="http://www.w3.org/2000/svg" viewBox="0 0 100 100"><defs><style>.cls-1{fill:#7eccd8;}</style></defs><title>1</title><path class="cls-1" d="M77.86,50.31C77.14,39.73,72.6,32.59,65.15,30.23a8.49,8.49,0,0,1-4-4.88l-4.25,1.82a12.59,12.59,0,0,0,6.81,7.39c7.2,2.28,9.2,10,9.61,16.06a28,28,0,0,1-1.79,10.2,16.09,16.09,0,0,1-10.58,9.9,18.09,18.09,0,0,1-15.88-2.57c-1-.71-1.95-1.51-2.92-2.31-3.46-2.86-7.38-6.1-12.72-6.1a6.34,6.34,0,0,0-4.6,1.81l3,3.54a1.85,1.85,0,0,1,1.65-.78c3.7,0,6.67,2.46,9.81,5.05,1,0.86,2.09,1.72,3.15,2.49a22.72,22.72,0,0,0,19.9,3.23A20.61,20.61,0,0,0,75.81,62.36C76.37,60.79,78.19,55.28,77.86,50.31ZM33.58,57.12a28.74,28.74,0,0,0,5.37.63c10.92-.16,17.7-6.87,17.7-17.49,0-2.46-1.27-7.48-2.8-11.79l-4.2,1.81c1.33,3.83,2.44,8.22,2.44,10,0,8.08-4.81,12.79-13.2,12.92a23.16,23.16,0,0,1-4.43-.54,29.33,29.33,0,0,0-5.91-.69h0a11.45,11.45,0,0,0-8.45,3.93l3,3.57a7.17,7.17,0,0,1,5.53-2.93A24.67,24.67,0,0,1,33.58,57.12Z"/></svg>