<?xml version="1.0" encoding="utf-8"?>
<!-- Generator: Adobe Illustrator 16.0.0, SVG Export Plug-In . SVG Version: 6.00 Build 0)  -->
<!DOCTYPE svg PUBLIC "-//W3C//DTD SVG 1.1//EN" "http://www.w3.org/Graphics/SVG/1.1/DTD/svg11.dtd">
<svg version="1.1" id="Слой_1" xmlns="http://www.w3.org/2000/svg" xmlns:xlink="http://www.w3.org/1999/xlink" x="0px" y="0px"
	 width="446.978px" height="419.979px" viewBox="63.242 216.546 446.978 419.979"
	 enable-background="new 63.242 216.546 446.978 419.979" xml:space="preserve">
<path fill="#7ECCD8" d="M342.842,424.507c-26.636-48.925-43.948-98.369-48.597-112.274h-25.427
	c-4.639,13.889-21.916,63.264-48.599,112.274c-15.4,28.283-15.892,59.815-1.315,84.349c12.565,21.148,34.507,33.706,60.614,34.877
	v0.1c0.674,0,1.344-0.015,2.013-0.029c0.669,0.015,1.338,0.029,2.013,0.029v-0.1c26.107-1.171,48.048-13.729,60.614-34.877
	C358.733,484.322,358.241,452.79,342.842,424.507z M322.075,495.735c-8.277,13.933-22.631,21.808-40.545,22.358
	c-17.915-0.551-32.268-8.426-40.545-22.358c-9.901-16.665-9.231-38.7,1.792-58.946c16.848-30.945,29.941-61.582,38.754-84.259
	c8.813,22.677,21.905,53.313,38.754,84.259C331.307,457.035,331.977,479.07,322.075,495.735z"/>
</svg>
