<svg id="Слой_1" data-name="Слой 1" xmlns="http://www.w3.org/2000/svg" viewBox="0 0 100 100"><defs><style>.cls-1{fill:#7eccd8;}</style></defs><title>1</title><path class="cls-1" d="M62.83,24c-5.8,0-10.45,6.18-13,10.42-3-4.54-8.72-11.39-15.52-10.17A15.2,15.2,0,0,0,22.44,35.47c-0.1.41-.18,0.83-0.25,1.25a14.4,14.4,0,0,0,3,10.9l21.36,28h6.92l21.4-28a14.84,14.84,0,0,0,3.09-7.68c0-.27,0-0.52,0-0.76A15.15,15.15,0,0,0,62.83,24ZM50,72.6L36.61,55.08h6.88l4.85,6.86,5.85-10.72,3.74,5h4.55Zm23.4-33.11a10.27,10.27,0,0,1-2.17,5.32L66,51.66H60.22l-6.63-8.89L47.84,53.32l-2-2.81H33.12L28.8,44.85a9.82,9.82,0,0,1-2.09-7.4c0-.3.11-0.59,0.18-0.89a10.57,10.57,0,0,1,8.28-7.8,4.53,4.53,0,0,1,.79-0.07c4.63,0,9.43,6.87,11.47,10.51h5.07c1.74-3.5,6.15-10.62,10.35-10.62A10.58,10.58,0,0,1,73.4,39.14C73.4,39.24,73.39,39.35,73.38,39.49Z"/></svg>