<svg id="Слой_1" data-name="Слой 1" xmlns="http://www.w3.org/2000/svg" viewBox="0 0 150 150"><defs><style>.cls-1{fill:#7eccd8;}</style></defs><title>косметология</title><path class="cls-1" d="M121.29,97.88c0,10.92-3.69,11.18-5.28,11.29-2.59.18-3.34-.62-3.6-.88-2.21-2.21-1.76-8.77-1.49-12.68l.05-.71c.29-4.3.89-8.7,1.48-13,.26-1.89.52-3.77.75-5.66,1.3-10.48,4.36-35-14.3-46.12A47,47,0,0,0,75.19,24h-.36A47,47,0,0,0,51.1,30.14C32.44,41.24,35.49,65.78,36.8,76.26c.23,1.89.49,3.78.75,5.66.59,4.26,1.19,8.67,1.48,13l.05.71c.27,3.92.73,10.47-1.49,12.68-.26.26-1,1.09-3.6.88-1.58-.11-5.28-.37-5.28-11.29H20.49c0,15.35,7,19.07,12.92,19.48,4.15.3,7.52-.8,10-3.27A14.21,14.21,0,0,0,47,106.38c6,8.89,15.07,15.67,26.69,19.42a4.11,4.11,0,0,0,2.79-.09C88.26,121,97.09,114.37,102.9,106a14.44,14.44,0,0,0,3.71,8.06,11.81,11.81,0,0,0,8.7,3.31c.42,0,.85,0,1.29,0,5.89-.41,12.91-4.13,12.91-19.48ZM55.3,37.2a38.76,38.76,0,0,1,19.56-5h.31a38.71,38.71,0,0,1,19.53,5c6.55,3.9,9.56,10.22,10.69,17.48C99,42.18,87.77,33.86,75,33.86S51,42.18,44.62,54.66C45.75,47.41,48.75,41.09,55.3,37.2Zm19.56,80.31c-17.63-6.23-27.7-20.3-27.7-38.8,0-20.2,12.49-36.64,27.84-36.64s27.84,16.44,27.84,36.64C102.84,96.62,93.43,109.66,74.86,117.51Z"/></svg>