<svg id="Слой_1" data-name="Слой 1" xmlns="http://www.w3.org/2000/svg" viewBox="0 0 100 100"><defs><style>.cls-1{fill:#7eccd8;}</style></defs><title>1</title><path class="cls-1" d="M56,41.54h2V37H51.42V52.89l12.44,18v2.27H32.29V70.84l12.44-18V37H38.15v4.57h2v9.92L27.73,69.41v8.26H68.43V69.41L56,51.46V41.54Zm8.66-20.07A7.31,7.31,0,1,0,72,28.79,7.32,7.32,0,0,0,64.65,21.47Zm0,10.05a2.74,2.74,0,1,1,2.74-2.74A2.74,2.74,0,0,1,64.65,31.53Zm-15.1,4A3.6,3.6,0,1,0,46,32,3.6,3.6,0,0,0,49.55,35.56Z"/></svg>