<svg id="Слой_1" data-name="Слой 1" xmlns="http://www.w3.org/2000/svg" viewBox="0 0 100 100"><defs><style>.cls-1{fill:#7eccd8;}</style></defs><title>1</title><path class="cls-1" d="M64.53,24.12a9.78,9.78,0,0,0-9.77-9.73H45.81A9.78,9.78,0,0,0,36,24.12,26.22,26.22,0,0,0,34.37,67l2.77-3.63A21.68,21.68,0,1,1,72,46.15a21.77,21.77,0,0,1-8.84,17.46l2.71,3.68A26.22,26.22,0,0,0,64.53,24.12ZM50.29,19.89a26,26,0,0,0-8.92,1.59A5.19,5.19,0,0,1,45.81,19h8.95a5.19,5.19,0,0,1,4.44,2.52A26.07,26.07,0,0,0,50.29,19.89Zm0,11.62A14.34,14.34,0,0,1,60.55,55.88l3.27,3.19a18.92,18.92,0,1,0-27.39-.34l3.34-3.11A14.35,14.35,0,0,1,50.29,31.51Zm11.8,14.2A11.81,11.81,0,1,0,42,54.14l-3,27.25H61.51l-3-27.26A11.72,11.72,0,0,0,62.09,45.71ZM56.42,76.83H44.15l2.68-24.63-1-.78a7.24,7.24,0,1,1,8.9,0l-1,.78Z"/></svg>