<svg id="Слой_1" data-name="Слой 1" xmlns="http://www.w3.org/2000/svg" viewBox="0 0 100 100"><defs><style>.cls-1{fill:#7eccd8;}</style></defs><title>1</title><path class="cls-1" d="M36.23,60.6h0A17.82,17.82,0,0,1,26.91,54,9.38,9.38,0,0,0,32,41.48,32.31,32.31,0,0,0,43.23,24.83H38.5a27.51,27.51,0,0,1-18,17.56l-1.72.52,0.1,1.8a22.48,22.48,0,0,0,14.8,19.86,80.8,80.8,0,0,1,1.44,8.81h4.57a70.21,70.21,0,0,0-1.12-7.68,21.3,21.3,0,0,0,7.16-.24L44.79,61A18.08,18.08,0,0,1,36.23,60.6ZM24.67,50a17.74,17.74,0,0,1-1.1-3.86,31.54,31.54,0,0,0,4.53-2.09,4.92,4.92,0,0,1,.17,1.25A4.86,4.86,0,0,1,24.67,50Zm48.81-25.2H68.74a100.43,100.43,0,0,0-.57,48.55h4.69A95.93,95.93,0,0,1,73.48,24.83Z"/></svg>