<?xml version="1.0" encoding="utf-8"?>
<!-- Generator: Adobe Illustrator 19.2.0, SVG Export Plug-In . SVG Version: 6.00 Build 0)  -->
<svg version="1.1" id="Слой_1" xmlns="http://www.w3.org/2000/svg" xmlns:xlink="http://www.w3.org/1999/xlink" x="0px" y="0px"
	 viewBox="0 0 100 100" style="enable-background:new 0 0 100 100;" xml:space="preserve">
<style type="text/css">
	.st0{fill:#7ECCD8;}
</style>
<title>1</title>
<path class="st0" d="M62.1,34.3c-3.7-1.6-6.9-1.8-9.6-0.5c-2.4,1.2-4.2,3.3-5,5.9l4.4,1.3c0.4-1.3,1.3-2.4,2.5-3
	c1.5-0.7,3.4-0.5,5.8,0.6c3.3,1.5,3.2,7.2,3.2,7.2l4.6,0.1C68,45.5,68.2,37,62.1,34.3z M70.2,32c-1.8-1.3-11.1-7.8-23.1-6.6
	c-8.5,0.8-17.4,2.7-24.6,10.6C17,42.2,16,47,19.5,51.5c2.1,2.8,5.4,3.5,8,3.7c-0.2,2,0.3,4.1,1.5,5.7c1.7,2.4,4.5,4,7.4,4.3
	c0.7,0.1,1.4,0.1,2,0.1c1.9,0,3.7-0.3,5.5-0.8l4,5.9h5.5l-5.2-7.7c0.7-0.4,1.3-0.7,2-1.1l6.4,8.8h4.6l0.7-0.5l-1.6-2.2
	c2.6-0.1,5.1-1,7.2-2.5c2.3-1.9,3.7-4.6,3.9-7.6c3.4-1,5.9-3.7,6.6-7.2C80.1,40.3,72.6,33.8,70.2,32z M64.8,61.8L64.8,61.8
	c-2.4,1.9-6.2,1.7-7.8,1.5l-2.8-3.8c2.4-0.9,4.9-1.2,7.5-1c1.2,0.2,2.4,0.3,3.7,0.3c0.5,0,0.9,0,1.4-0.1
	C66.4,59.9,65.8,61,64.8,61.8z M73.6,49.7L73.6,49.7c-0.9,4.8-7.6,4.6-10.2,4.3c-1.2-0.7-2.6-1.8-2.8-3.1c0-0.4,0-0.7,0.1-1.1
	l-4.1-2.1c-0.5,1.1-0.7,2.3-0.6,3.6c0.1,0.9,0.4,1.9,0.9,2.7c-2.5,0.3-4.8,1.1-6.9,2.5c-4.8,3.2-8.2,4.8-13.2,4.3
	c-1.7-0.2-3.2-1-4.1-2.4c-0.7-0.9-0.9-2-0.7-3.1c0.5-1.9,1.9-3.1,7.5-2.8c2.9,0.1,9.9,0.1,12.5-2c1.2-1,2.1-2.3,2.6-3.7l-4.1-2
	c-0.2,0.8-0.7,1.6-1.4,2.2c-0.6,0.5-4,1.2-9.4,1c-2.4-0.1-7.3-0.3-10.2,2.8c-1.8,0.1-5-0.1-6.4-1.9c-1-1.3-2.4-3.2,1.5-8.2
	c1.4,3.6,5.6,5.2,6.1,5.4l1.5-4.3c-1-0.4-3.2-1.6-3.5-3c-0.3-1.2,0.8-2.5,1.8-3.6c2.1-1.4,4.3-2.4,6.6-3.2c-0.5,2-0.1,4.9,3.3,8.2
	l3.2-3.3c-1.2-1.1-2.5-2.8-2-4.1c0.5-1.4,2.2-2.2,3.1-2.5c0.9-0.2,1.8-0.2,2.8-0.3c10.4-1,18.5,4.6,20,5.7
	C69.8,37.4,75.1,42.2,73.6,49.7z"/>
</svg>
