<?xml version="1.0" encoding="utf-8"?>
<!-- Generator: Adobe Illustrator 16.0.0, SVG Export Plug-In . SVG Version: 6.00 Build 0)  -->
<!DOCTYPE svg PUBLIC "-//W3C//DTD SVG 1.1//EN" "http://www.w3.org/Graphics/SVG/1.1/DTD/svg11.dtd">
<svg version="1.1" id="Слой_1" xmlns="http://www.w3.org/2000/svg" xmlns:xlink="http://www.w3.org/1999/xlink" x="0px" y="0px"
	 width="423.042px" height="417.042px" viewBox="92.94 207.243 423.042 417.042"
	 enable-background="new 92.94 207.243 423.042 417.042" xml:space="preserve">
<path fill="#7ECCD8" d="M421.937,415.435c-4.811-1.688-10.981-2.681-18.127-3.832c-17.738-2.856-42.032-6.768-49.934-22.852
	c-7.174-14.601-1.445-39.833,16.565-72.969l-10.288-5.593l-9.228-7.208c-3.116,3.989-6.092,9.36-9.538,15.58
	c-9.135,16.487-21.644,39.067-40.8,41.255c-17.575,2.011-41.272-12.921-68.527-43.172l-8.7,7.838l-9.821,6.377
	c2.831,4.358,7.227,9.163,12.316,14.727c13.821,15.106,32.749,35.795,28.35,56.035c-3.758,17.287-24.901,34.563-61.145,49.961
	l4.579,10.778l2.833,11.361c5.166-1.288,11.285-3.997,18.37-7.134c18.643-8.254,44.175-19.557,61.619-9.056
	c10.228,6.158,17.836,20.02,22.505,40.696c0.731,6.039,1.684,11.763,2.541,16.915c0.557,3.343,1.095,6.581,1.472,9.367
	c0.203,2.177,0.387,4.396,0.547,6.666l11.682-0.821h11.709c0-2.531-0.257-5.359-0.661-8.45c-0.959-10.172-2.357-19.47-4.203-27.913
	c-1.887-16.675-1.502-34.427,9.3-45.131c12.567-12.451,39.707-15.427,78.49-8.599l0.623-3.54L421.937,415.435z M318.87,432.227
	c-5.418,5.368-9.238,11.436-11.885,17.88c-4.253-5.185-9.061-9.396-14.443-12.637c-8.487-5.109-17.476-7.286-26.495-7.583
	c5.601-7.391,9.272-15.14,11.043-23.29c2.074-9.54,1.339-18.618-1.126-27.142c7.306,2.651,14.385,3.97,21.266,3.97
	c2.022,0,4.027-0.114,6.015-0.341c9.277-1.06,17.25-4.465,24.173-9.23c-0.024,9.399,1.785,17.789,5.438,25.224
	c3.61,7.349,8.658,13.073,14.517,17.597C335.692,419.771,326.221,424.942,318.87,432.227z"/>
</svg>
