<svg id="Слой_1" data-name="Слой 1" xmlns="http://www.w3.org/2000/svg" viewBox="0 0 100 100"><defs><style>.cls-1{fill:#7eccd8;}</style></defs><title>1</title><path class="cls-1" d="M85.57,61.53C84.23,58.18,81,58.83,79,59.22a12.3,12.3,0,0,1-8.44-.64c-6.34-2.93-12.39-7.21-18-11.39a10.61,10.61,0,0,1-4.39-7.75c-0.23-3.56.93-10.73,1.19-12.3H44.78c-0.41,2.57-1.35,8.95-1.12,12.59a15.17,15.17,0,0,0,6.22,11.12c5.8,4.33,12.09,8.77,18.81,11.88a16.63,16.63,0,0,0,11.26,1c0.47-.09,1.07-0.22,1.45-0.25,0.36,1.48-1.63,2.7-3.41,3.47a23.33,23.33,0,0,1-8.68,1.36,20.31,20.31,0,0,1-9.06-2.09C53,62.53,42.43,65.83,42.07,66c-1.88.52-7.61,2.11-9.69-.39C31.14,64.07,31,61.7,32,58.09c0.48-1.81,1.11-3.77,1.93-6,2-5.36.38-13.71-1.31-19.77a33.49,33.49,0,0,1-.69-5.2H27.31a38.23,38.23,0,0,0,.87,6.43c2.1,7.54,2.62,13.72,1.43,17-0.87,2.35-1.55,4.45-2.06,6.4-0.86,3.25-1.65,8,1.32,11.55,4,4.77,11.56,2.67,14.51,1.85,0.09,0,9.22-2.88,14.82-.05a24.14,24.14,0,0,0,11,2.58h0.2a27.31,27.31,0,0,0,10.47-1.74C84.93,68.88,87.08,65.3,85.57,61.53Z"/></svg>