<svg id="Слой_1" data-name="Слой 1" xmlns="http://www.w3.org/2000/svg" viewBox="0 0 100 100"><defs><style>.cls-1{fill:#7eccd8;}</style></defs><title>1</title><path class="cls-1" d="M48.76,40.12a8.71,8.71,0,1,0-16.92,4.15l4.44-1.09a4.14,4.14,0,1,1,5.42,2.89l-0.29.1-0.13,0v0a4.8,4.8,0,1,0,5.79,1.37A8.67,8.67,0,0,0,48.76,40.12Zm7.49,2.15a18.17,18.17,0,0,0-5.32-12.89,16.78,16.78,0,0,0-11.86-4.81c-9.13.14-16.78,8.32-16.69,17.87a17.83,17.83,0,0,0,6.83,14,8.29,8.29,0,0,1,3,5.19,11.32,11.32,0,0,0,1.09,3.22A10.83,10.83,0,0,0,42,71l0.67,0a10.33,10.33,0,0,0,7.12-2.85,11.31,11.31,0,0,0,3.52-8.23H48.77a6.72,6.72,0,0,1-2.08,4.9,5.71,5.71,0,0,1-4.37,1.6,6.26,6.26,0,0,1-5-3.61,6.73,6.73,0,0,1-.66-1.92,12.85,12.85,0,0,0-4.69-8A13.28,13.28,0,0,1,27,42.41c-0.07-7.09,5.52-13.16,12.19-13.26a11.68,11.68,0,0,1,8.58,3.5,13.58,13.58,0,0,1,4,9.63h4.57Zm26.58,5.51-2,3.9L75.42,39.1H71l-5,12.51-2-3.75H56.74v4.57h4.57l3,5.58h4.14L73.3,45.75,78.55,58h4.14l2.93-5.65h4.31V47.79H82.83Z"/></svg>