<svg id="Слой_1" data-name="Слой 1" xmlns="http://www.w3.org/2000/svg" viewBox="0 0 100 100"><defs><style>.cls-1{fill:#7eccd8;}</style></defs><title>1</title><path class="cls-1" d="M78.22,52.07a33.65,33.65,0,0,1-55.61,1.21l-3.72,2.66A38.22,38.22,0,0,0,82,54.56ZM50,32.6a33.65,33.65,0,0,1,28,15l3.8-2.54A38.21,38.21,0,0,0,19,43.94l3.7,2.67A33.8,33.8,0,0,1,50,32.6ZM34.61,50A15.39,15.39,0,1,0,50,34.61,15.4,15.4,0,0,0,34.61,50Zm26.21,0A10.82,10.82,0,1,1,50,39.17,10.83,10.83,0,0,1,60.82,50Zm-6.1,2.53a4.24,4.24,0,1,0-4.24-4.24A4.25,4.25,0,0,0,54.72,52.53Z"/></svg>