<?xml version="1.0" encoding="utf-8"?>
<!-- Generator: Adobe Illustrator 21.0.2, SVG Export Plug-In . SVG Version: 6.00 Build 0)  -->
<svg version="1.1" id="Слой_1" xmlns="http://www.w3.org/2000/svg" xmlns:xlink="http://www.w3.org/1999/xlink" x="0px" y="0px"
	 viewBox="0 0 253 230" style="enable-background:new 0 0 253 230;" xml:space="preserve">
<style type="text/css">
	.st0{fill:none;enable-background:new    ;}
	.st1{fill:#80CCD8;}
</style>
<path class="st0" d="z"/>
<g>
	<path class="st1" d="M41.2,82c2.4-3.1,5-6.1,7.9-8.9c-5.8-3.6-9.7-10-9.7-17.3c0-11.3,9.2-20.5,20.5-20.5c10.1,0,18.5,7.4,20.2,17
		c3.6-1.6,7.3-3,11.2-4.2c-3.5-14.1-16.2-24.6-31.3-24.6c-17.8,0-32.3,14.5-32.3,32.3C27.6,66.6,33,76.2,41.2,82z"/>
	<path class="st1" d="M193.6,35.2c11.3,0,20.5,9.2,20.5,20.5c0,7.5-4,13.9-10,17.5c2.8,2.9,5.5,5.9,7.9,9
		c8.4-5.8,13.9-15.6,13.9-26.5c0-17.8-14.5-32.3-32.3-32.3c-15.2,0-28,10.6-31.4,24.8c3.9,1.2,7.6,2.7,11.2,4.3
		C175,42.7,183.4,35.2,193.6,35.2z"/>
	<path class="st1" d="M13.3,128.9c0,54.7,50.9,99.3,113.4,99.3c62.5,0,113.4-44.5,113.4-99.3c0-12.5-2.6-24.7-7.8-36.2
		c9.4-10,14.7-23.2,14.7-37c0-29.7-24.2-53.9-53.9-53.9c-20.4,0-38.7,11.3-47.9,29.2c-12.3-1.8-25-1.8-37.3,0
		C98.7,13.1,80.3,1.8,59.9,1.8C30.2,1.8,6,26,6,55.8C6,69.6,11.4,82.9,20.9,93C15.8,104.4,13.3,116.5,13.3,128.9z M17.8,55.8
		c0-23.2,18.9-42.1,42.1-42.1c17.2,0,32.5,10.3,39,26.2l1.8,4.4l4.7-0.9c13.8-2.5,28.3-2.5,42.1-0.1l4.7,0.8l1.8-4.4
		c6.5-15.9,21.8-26.2,39-26.2c23.2,0,42.1,18.9,42.1,42.1c0,11.9-5.1,23.3-14,31.3l-3.4,3l2,4c3.5,6.9,5.9,14.1,7.2,21.4
		c0.8,4.5,1.3,9.1,1.3,13.8c0,24-11.5,45.7-30,61.4c-18.4,15.8-43.8,25.6-71.7,25.6c-19.7,0-38-4.8-53.6-13.2
		c-29.1-15.3-48.4-42.6-48.4-73.8c0-12.6,3.2-24.6,8.9-35.4l1.9-3.7l-3.4-3C23,79.2,17.8,67.8,17.8,55.8z"/>
	<path class="st1" d="M53.6,157.6c0,27.7,32.7,50.3,72.9,50.3c40.2,0,72.9-22.6,72.9-50.3c0-27.7-32.7-50.3-72.9-50.3
		C86.3,107.3,53.6,129.9,53.6,157.6z M126.5,151.7c-9.2,0-16.4-4.4-16.4-8.2s7.2-8.2,16.4-8.2c9.2,0,16.4,4.4,16.4,8.2
		S135.7,151.7,126.5,151.7z M126.5,119.1c33.7,0,61.1,17.3,61.1,38.5c0,20-24.3,36.4-55.2,38.3V163c12.9-1.9,22.3-9.8,22.3-19.6
		c0-11.2-12.4-20-28.2-20c-15.8,0-28.2,8.8-28.2,20c0,9.8,9.4,17.7,22.3,19.6v32.8c-30.9-1.9-55.2-18.3-55.2-38.3
		C65.4,136.4,92.8,119.1,126.5,119.1z"/>
	<path class="st1" d="M83.2,93.7c-10.1,0-10.1,15.7,0,15.7S93.4,93.7,83.2,93.7z"/>
	<path class="st1" d="M169.7,109.4c10.1,0,10.1-15.7,0-15.7C159.6,93.7,159.6,109.4,169.7,109.4z"/>
</g>
</svg>
