<svg id="Слой_1" data-name="Слой 1" xmlns="http://www.w3.org/2000/svg" viewBox="0 0 150 150"><defs><style>.cls-1{fill:#7eccd8;}</style></defs><title>Пластическая_хирургия</title><path class="cls-1" d="M46.67,80.45l8.14,2.43a94.8,94.8,0,0,0,3.51-17.59l-8.46-.85A86.26,86.26,0,0,1,46.67,80.45Z"/><path class="cls-1" d="M36.6,103.05a51,51,0,0,1,4.54-20.83,117.42,117.42,0,0,0,9.72-34.14l7.4-.82a60.59,60.59,0,0,0-3.58-15.64l-3.48,1.46A41.92,41.92,0,0,0,49.66,24l-8.07,2.68c.07.19,6.21,19.52-8.22,52.11a58.92,58.92,0,0,0-5.3,25.92c.44,13.31,4.75,21,4.93,21.29l7.39-4.2a37.29,37.29,0,0,1-3.24-11.18l3.36,2.23a122.77,122.77,0,0,0,7.72-13.34l-7.62-3.77C39.4,98.19,38,100.63,36.6,103.05Z"/><path class="cls-1" d="M116.62,78.79c-14.29-32.28-8.27-51.93-8.21-52.13l-4-1.32-4-1.34a41.92,41.92,0,0,0-1.56,9.09l-3.48-1.46a60.59,60.59,0,0,0-3.58,15.64l7.4.82a117.4,117.4,0,0,0,9.72,34.13,51,51,0,0,1,4.54,20.82c-1.44-2.42-2.8-4.86-4-7.3l-7.62,3.77a121.86,121.86,0,0,0,7.72,13.34l3.36-2.23a37.35,37.35,0,0,1-3.23,11.16L117,126c.18-.32,4.49-8,4.93-21.29A58.94,58.94,0,0,0,116.62,78.79Z"/><path class="cls-1" d="M100.14,64.44l-8.46.85a94.8,94.8,0,0,0,3.51,17.59l8.14-2.43A86.26,86.26,0,0,1,100.14,64.44Z"/><circle class="cls-1" cx="75.42" cy="98.39" r="3.08"/></svg>