<svg id="Слой_1" data-name="Слой 1" xmlns="http://www.w3.org/2000/svg" viewBox="0 0 100 100"><defs><style>.cls-1{fill:#7eccd8;}</style></defs><title>1</title><path class="cls-1" d="M59.92,57.78V48.93a4.23,4.23,0,0,0,.72-6.59,4.11,4.11,0,0,0-.72-0.58V35.32H55.35v6.45a4.16,4.16,0,0,0-.72.58,4.23,4.23,0,0,0,.72,6.59v8.84h4.57Zm12.9-12.7a22.59,22.59,0,0,0-45.17-.48c-0.72,1.48-3.76,7.12-5.88,11a2.28,2.28,0,0,0,2,3.38h0l3.7,0c-0.1,2.73.27,6.92,3,10.13,2.14,2.53,5.25,3.94,9.28,4.2,0,1.77,0,4.15,0,5.67h4.57c0-2.68,0-8,0-8a2.28,2.28,0,0,0-.71-1.63,2.23,2.23,0,0,0-1.66-.63c-3.7.16-6.36-.73-7.95-2.59-2.83-3.33-1.72-9-1.71-9A2.28,2.28,0,0,0,30,54.39H27.62c4.59-8.43,4.59-8.66,4.59-9.31A18,18,0,1,1,64.08,56.61a22.62,22.62,0,0,0-5.23,14.46,30.28,30.28,0,0,0,.55,5.19c0.15,0.87.28,1.76,0.38,2.7h4.6c-0.11-1.22-.29-2.35-0.48-3.45a26.34,26.34,0,0,1-.48-4.44,18,18,0,0,1,4.17-11.53A22.63,22.63,0,0,0,72.82,45.08ZM42.75,57.78V44.92a4.23,4.23,0,0,0,.72-6.59,4.15,4.15,0,0,0-.72-0.57V35.32H38.18v2.43a4.21,4.21,0,0,0-.72.58,4.24,4.24,0,0,0,.72,6.59V57.78h4.57Zm8.37-9.3V35.32H46.56V48.47a4.24,4.24,0,0,0-.72,6.59,4.19,4.19,0,0,0,.72.57v2.14h4.57V55.64a4.17,4.17,0,0,0,.72-0.58A4.24,4.24,0,0,0,51.12,48.47Z"/></svg>