<svg id="Слой_1" data-name="Слой 1" xmlns="http://www.w3.org/2000/svg" viewBox="0 0 100 100"><defs><style>.cls-1{fill:#7eccd8;}</style></defs><title>1</title><path class="cls-1" d="M79.69,56.47A23.5,23.5,0,0,0,56.22,33.14H53.94V43.62l-1.66-1.37V24.73H47.72V42.26L46,43.69V33.14H43.72A23.5,23.5,0,0,0,20.25,56.47c-0.14,1.18-.68,7.62,3.1,12,2.26,2.61,5.53,3.93,9.7,3.93C46,72.4,46,59,46,54V49.66l4-3.36,3.93,3.26V54c0,5,0,18.42,13,18.42,4.17,0,7.44-1.33,9.7-3.94C80.38,64.09,79.83,57.65,79.69,56.47ZM41.44,54c0,11.5-3.35,13.85-8.39,13.85-2.82,0-4.86-.77-6.23-2.34-2.73-3.13-2-8.49-2-8.54l0-.33A18.93,18.93,0,0,1,41.44,37.85v9.68l-4.87,4.09L27,51.78l0.08,4.57L31,56.28l-4.1,3.44,2.94,3.5,4-3.32v4.28h4.57V56.07l3.07-2.58V54ZM73.13,65.48c-1.38,1.58-3.41,2.35-6.23,2.35-5,0-8.39-2.36-8.39-13.85V53.34l3.07,2.55v8.29h4.57v-4.5L68.9,62l2.92-3.52-2.61-2.17,3.62,0.06,0.08-4.57-9.32-.16-5.08-4.21V37.85A18.93,18.93,0,0,1,75.13,56.62l0,0.32C75.16,57,75.86,62.36,73.13,65.48Z"/></svg>