<?xml version="1.0" encoding="utf-8"?>
<!-- Generator: Adobe Illustrator 19.2.0, SVG Export Plug-In . SVG Version: 6.00 Build 0)  -->
<svg version="1.1" id="Слой_1" xmlns="http://www.w3.org/2000/svg" xmlns:xlink="http://www.w3.org/1999/xlink" x="0px" y="0px"
	 viewBox="0 0 100 100" style="enable-background:new 0 0 100 100;" xml:space="preserve">
<style type="text/css">
	.st0{fill:#7ECCD8;}
</style>
<g>
	<g>
		<rect x="16.4" y="66.8" class="st0" width="74.2" height="5.6"/>
	</g>
	<g>
		<path class="st0" d="M22.1,66.1c-3.9,0-7.1-3.2-7.1-7.1s3.2-7.1,7.1-7.1s7.1,3.2,7.1,7.1S26.1,66.1,22.1,66.1z M22.1,57.4
			c-0.8,0-1.5,0.7-1.5,1.5s0.7,1.5,1.5,1.5c0.8,0,1.5-0.7,1.5-1.5S23,57.4,22.1,57.4z"/>
	</g>
	<g>
		<rect x="31" y="57.6" class="st0" width="59.6" height="5.6"/>
	</g>
	<g>
		<path class="st0" d="M53.2,39.4c-3.9,0-7.1-3.2-7.1-7.1s3.2-7.1,7.1-7.1c3.9,0,7.1,3.2,7.1,7.1S57.1,39.4,53.2,39.4z M53.2,30.7
			c-0.8,0-1.5,0.7-1.5,1.5s0.7,1.5,1.5,1.5c0.8,0,1.5-0.7,1.5-1.5S54,30.7,53.2,30.7z"/>
	</g>
	<g>
		<rect x="50" y="41.2" class="st0" width="5.6" height="15"/>
	</g>
	<g>
		<polygon class="st0" points="39.3,56.4 35.9,52 50,41.2 53.1,46 		"/>
	</g>
	<g>
		<path class="st0" d="M35,47.5H10.2V25.1H35V47.5z M15.8,41.9h13.6V30.8H15.8V41.9z"/>
	</g>
</g>
</svg>
