<svg id="Слой_1" data-name="Слой 1" xmlns="http://www.w3.org/2000/svg" viewBox="0 0 100 100"><defs><style>.cls-1{fill:#7eccd8;}</style></defs><title>1</title><path class="cls-1" d="M48.55,49.31A6.29,6.29,0,1,0,54.85,43,6.3,6.3,0,0,0,48.55,49.31ZM61,58.72a8.72,8.72,0,0,0-4.93,1.6,8.27,8.27,0,0,0-4.93-1.64h0A8.31,8.31,0,0,0,42.84,67a8.35,8.35,0,0,0,3.52,6.82h0a6,6,0,0,1,2.54,4.94l0,5,4.57,0,0-5A10.62,10.62,0,0,0,49,70.05l-0.2.28L49,70a3.74,3.74,0,0,1,2.15-6.8h0a3.68,3.68,0,0,1,2.44.92,3.48,3.48,0,0,0,2.47,1h0a3.45,3.45,0,0,0,2.39-.94,3.71,3.71,0,0,1,2.51-1h0a3.74,3.74,0,0,1,2.1,6.83,10.62,10.62,0,0,0-4.53,8.64l0,5,4.57,0,0-5a6,6,0,0,1,2.58-4.92A8.31,8.31,0,0,0,61,58.72ZM46.36,45.87a8.25,8.25,0,0,0,2.33-4.62A8.31,8.31,0,1,0,46,24.85h0a6.06,6.06,0,0,1-5.3-1.68L37.14,19.6l-3.23,3.23,3.57,3.57a10.64,10.64,0,0,0,9.3,3l-0.07-.43,0.09,0.42a3.74,3.74,0,0,1,3.3,6.33,3.68,3.68,0,0,1-2.37,1.09,3.54,3.54,0,0,0-2.48,1,3.47,3.47,0,0,0-1,2.38,3.71,3.71,0,0,1-1.09,2.47,3.83,3.83,0,0,1-5.29,0,3.75,3.75,0,0,1-1-3.32,10.64,10.64,0,0,0-3-9.3l-3.57-3.57-3.23,3.23,3.57,3.57a6,6,0,0,1,1.68,5.29A8.31,8.31,0,0,0,46.36,45.87Zm18.88,0.35c0.94,2.75.41,5.89-1.57,9.32l4,2.28c2.67-4.64,3.32-9.05,1.93-13.11-2.37-6.91-9.84-10-10.16-10.14L57.67,38.8C57.73,38.83,63.57,41.29,65.24,46.22Zm-22.62,4-4.57,0C38,56.75,41.31,59.79,42.73,60.8l2.63-3.73C44.53,56.47,42.59,54.63,42.62,50.22Z"/></svg>