<?xml version="1.0" encoding="utf-8"?>
<!-- Generator: Adobe Illustrator 16.0.0, SVG Export Plug-In . SVG Version: 6.00 Build 0)  -->
<!DOCTYPE svg PUBLIC "-//W3C//DTD SVG 1.1//EN" "http://www.w3.org/Graphics/SVG/1.1/DTD/svg11.dtd">
<svg version="1.1" id="Слой_1" xmlns="http://www.w3.org/2000/svg" xmlns:xlink="http://www.w3.org/1999/xlink" x="0px" y="0px"
	 width="445px" height="408px" viewBox="79.14 239.445 445 408" enable-background="new 79.14 239.445 445 408"
	 xml:space="preserve">
<path fill="#7ECCD8" d="M397.212,500.843c1.514-8.774,2.291-18.094,2.56-27.534c-3.975,1.958-9.979,4.387-18.962,7.049
	c-15.172,4.498-25.351,5.961-31.78,6.414c-6.496-8.6-11.653-14.533-18.096-21.113c2.734,0.284,5.607,0.499,8.604,0.608
	c1.514,0.055,3.025,0.082,4.525,0.082c17.033,0,33.127-3.527,47.904-10.508c2.693-1.273,5.232-2.533,7.652-3.787
	c-0.364-9.478-1.063-18.745-1.865-27.365c-4.04,2.596-9.586,5.714-17.177,9.3c-24.181,11.425-47.731,8.073-60.829,5.095
	c-0.086-7.907-0.16-15.757-0.217-23.289c4.895,1.249,10.442,2.253,16.477,2.613c1.64,0.098,3.275,0.146,4.897,0.146
	c18.024,0.001,34.905-6.018,50.244-17.926c0.716-0.555,1.417-1.108,2.108-1.656c-2.52-8.663-5.921-16.826-9.724-24.31
	c-2.548,2.231-5.381,4.58-8.576,7.06c-22.05,17.118-42.846,13.025-55.555,8.449c-0.014-8.646,0.01-16.095,0.08-21.656
	c3.928-0.166,8.46-0.503,13.192-1.14c16.866-2.271,29.33-7.361,37.184-15.161c-6.594-9.237-12.794-16.161-16.561-20.01
	c-0.172,0.573-0.391,1.125-0.707,1.625c-2.713,4.274-11.137,7.678-23.112,9.339c-11.2,1.553-21.409,1.002-21.511,0.997l-6.329,4.418
	l-6.331-4.418c-0.102,0.005-10.31,0.556-21.509-0.997c-11.976-1.661-20.4-5.064-23.112-9.339c-0.317-0.5-0.536-1.052-0.708-1.625
	c-3.766,3.85-9.966,10.773-16.56,20.01c7.854,7.8,20.316,12.89,37.183,15.161c4.732,0.637,9.264,0.974,13.193,1.14
	c0.07,5.561,0.093,13.01,0.078,21.656c-12.706,4.576-33.502,8.669-55.554-8.449c-3.195-2.48-6.028-4.829-8.575-7.06
	c-3.803,7.484-7.205,15.646-9.723,24.31c0.69,0.548,1.391,1.101,2.107,1.656c15.34,11.909,32.22,17.927,50.246,17.926
	c1.623,0,3.257-0.049,4.898-0.146c6.033-0.36,11.581-1.364,16.475-2.613c-0.056,7.532-0.129,15.381-0.216,23.289
	c-13.098,2.979-36.648,6.33-60.829-5.095c-7.59-3.586-13.137-6.704-17.177-9.3c-0.8,8.62-1.501,17.888-1.865,27.365
	c2.42,1.254,4.959,2.514,7.653,3.787c14.778,6.98,30.871,10.508,47.902,10.508c1.501,0,3.012-0.027,4.528-0.082
	c2.996-0.109,5.868-0.324,8.603-0.608c-6.442,6.58-11.599,12.514-18.096,21.113c-6.428-0.453-16.607-1.916-31.78-6.414
	c-8.984-2.662-14.988-5.091-18.961-7.049c0.268,9.44,1.045,18.76,2.559,27.534c2.753,0.951,5.679,1.886,8.785,2.807
	c9.16,2.715,16.877,4.481,23.298,5.627c-2.64,3.809-5.517,7.989-8.689,12.617c-1.925,1.248-7.68,3.562-15.522,5.088
	c4.183,8.703,9.865,15.874,17.49,20.707c7.381-2.443,15.182-6.18,18.946-11.671c27.591-40.255,31.714-45.323,51.265-64.085
	c19.55,18.762,23.673,23.83,51.265,64.085c3.765,5.491,11.565,9.228,18.946,11.671c7.623-4.833,13.306-12.004,17.489-20.707
	c-7.841-1.526-13.597-3.84-15.521-5.088c-3.173-4.628-6.051-8.809-8.689-12.617c6.421-1.146,14.138-2.912,23.297-5.627
	C391.533,502.729,394.458,501.794,397.212,500.843z"/>
</svg>
