<svg id="Слой_1" data-name="Слой 1" xmlns="http://www.w3.org/2000/svg" viewBox="0 0 100 100"><defs><style>.cls-1{fill:#7eccd8;}</style></defs><title>1</title><path class="cls-1" d="M75.27,42.9V24.71l-3.19,1.38A13,13,0,0,0,65.19,42.9h-1V75.29h11V42.9h0ZM70.7,70.72H68.81V47.47H70.7V70.72ZM70.38,42.9A8.41,8.41,0,0,1,70.7,32.7V42.9H70.38ZM49.25,27.62c-4.3,0-7.76,4.16-9.8,7.4-2.43-3.5-6.78-8.09-11.79-7.2a12,12,0,0,0-9.44,8.88c-0.08.33-.14,0.66-0.2,1a11.43,11.43,0,0,0,2.35,8.66l16.4,21.48h5.56L58.76,46.31A11.77,11.77,0,0,0,61.2,40.2c0-.21,0-0.42,0-0.6A12,12,0,0,0,49.25,27.62Zm5.88,15.92L39.55,63.93,24,43.57a6.86,6.86,0,0,1-1.47-5.16q0.05-.31.13-0.63a7.4,7.4,0,0,1,5.8-5.47,2.71,2.71,0,0,1,.5,0c3.25,0,6.83,5.24,8.23,7.77h4.68c1.39-2.85,4.63-7.85,7.38-7.85a7.46,7.46,0,0,1,7.4,7.63A7.21,7.21,0,0,1,55.13,43.54Z"/></svg>