<svg id="Слой_1" data-name="Слой 1" xmlns="http://www.w3.org/2000/svg" viewBox="0 0 100 100"><defs><style>.cls-1{fill:#7eccd8;}</style></defs><title>1</title><path class="cls-1" d="M75.27,33.44c-0.7-6.52-5.23-9.73-13.46-9.61-0.73,0-1.68,0-1.69,0L60.05,28.4s1,0,1.83,0c5.85-.15,8.41,1.5,8.84,5.53,0.38,3.52-.88,5.34-6.13,8.81l-1.73,1.13c-3.45,2.23-6.95,4.54-9.18,8.31C51.45,48.41,48,46.1,44.5,43.87l-1.73-1.13c-5.25-3.47-6.51-5.29-6.13-8.81,0.43-4,3-5.69,8.84-5.53,0.8,0,1.83,0,1.83,0l-0.06-4.57s-0.95,0-1.69,0c-8.25-.13-12.77,3.09-13.46,9.61s3.27,9.88,8.15,13.11L42,47.7c5.05,3.27,8.71,5.63,9.37,11.94V70.58a3.79,3.79,0,0,1-.61,1.77,4.82,4.82,0,0,1-1.65,1.17,3.28,3.28,0,0,1-1.6-.06A4.77,4.77,0,0,1,46,72.25a4.56,4.56,0,0,1-.56-2V62.69a7.74,7.74,0,0,0-7.56-7.89H33a6.51,6.51,0,0,0-1.49-2.34,6.71,6.71,0,0,0-9.25,0A6.54,6.54,0,1,0,33,59.37h4.83a3.17,3.17,0,0,1,3,3.32v7.57a8.85,8.85,0,0,0,1.43,4.67,9.14,9.14,0,0,0,3.54,2.77,7.29,7.29,0,0,0,2.65.46,6.91,6.91,0,0,0,2.07-.29,9.14,9.14,0,0,0,3.77-2.62A8.14,8.14,0,0,0,56,70.58V59.71h0c0.64-6.36,4.31-8.73,9.38-12l1.77-1.15C72,43.32,76,40.1,75.27,33.44Zm-47,25a2,2,0,0,1-2.79,0,2,2,0,0,1-.58-1.39A2,2,0,1,1,28.31,58.48Z"/></svg>