<svg id="Слой_1" data-name="Слой 1" xmlns="http://www.w3.org/2000/svg" viewBox="0 0 100 100"><defs><style>.cls-1{fill:#7eccd8;}</style></defs><title>Ультразвуковая диагностика 2</title><path class="cls-1" d="M49,68.49a16,16,0,0,0,12.18-5.63l-3.43-2.92a11.49,11.49,0,0,1-17.5,0l-0.11-.13-3.48,2.85,0.18,0.21A16,16,0,0,0,49,68.49Zm-0.15,3.3A20.06,20.06,0,0,1,34.51,66l-0.2-.21-3.26,3.1,0.25,0.26a24.58,24.58,0,0,0,17.55,7.1,24.57,24.57,0,0,0,17.6-7.15L63.22,66A20,20,0,0,1,48.85,71.79ZM67,42.85v-10c0.11-1,.35-4.89-2.18-7.8a9.11,9.11,0,0,0-7.23-2.91c-3.78,0-6.69,1.08-8.65,3.2a9.36,9.36,0,0,0-2.38,5.82L42.18,34V45.81l-3.33,2.51v7.85l1,0.67a16.19,16.19,0,0,0,8.76,2.46A19,19,0,0,0,57.47,57l1.2-.63v-8l-3.33-2.51V34L51,31.21a4.85,4.85,0,0,1,1.18-2.79c1.07-1.16,2.87-1.75,5.34-1.75A4.81,4.81,0,0,1,61.37,28a6.31,6.31,0,0,1,1.11,4.42l0,10.4a11.72,11.72,0,0,0,3.07,7.81,9.87,9.87,0,0,0,7.3,2.78v-4.5C67.27,48.93,67,43.87,67,42.85ZM54.17,50.56v3a13,13,0,0,1-10.83.1V50.56l3.33-2.51V36.46l2.08-1.35,2.08,1.35v11.6Z"/></svg>