<svg id="Слой_1" data-name="Слой 1" xmlns="http://www.w3.org/2000/svg" viewBox="0 0 100 100"><defs><style>.cls-1{fill:#7eccd8;}</style></defs><title>1</title><path class="cls-1" d="M83.14,42.18L83,41.5c-1-5.95-5.35-12-10.26-14.35a10,10,0,0,0-9.5.1c-6,3.27-5.82,7.92-5.19,10.4a14.68,14.68,0,0,0,3.26,5.8,33.6,33.6,0,0,0-9.27,4,33.6,33.6,0,0,0-9.27-4A14.69,14.69,0,0,0,46,37.65c0.63-2.48.8-7.13-5.19-10.4a10,10,0,0,0-9.5-.1c-4.91,2.37-9.23,8.4-10.26,14.35L21,42.18C20.29,46,19.13,52.36,23.81,61.7a15.58,15.58,0,0,0,11.58,8.8,12.38,12.38,0,0,0,1.66.11,9.59,9.59,0,0,0,7.27-3c0.22-.24.39-0.5,0.58-0.75,0.1,1.77.14,3.94,0.14,6.69h4.57c0-10.28-.57-13.61-3-17.82a11.37,11.37,0,0,0-6.48-4.81,13.47,13.47,0,0,0-3.63-.68v4.57a7.73,7.73,0,0,1,2.15.44,6.92,6.92,0,0,1,4,2.78,6.63,6.63,0,0,1-1.69,6.54A5.46,5.46,0,0,1,36,66a11,11,0,0,1-8.1-6.32c-4-8-3.05-13.2-2.43-16.66l0.13-.72c0.77-4.46,4.18-9.3,7.75-11a5.55,5.55,0,0,1,5.33,0c3.37,1.84,3.16,3.87,3.08,4.53-0.34,3.25-4,6.58-5.15,6.91h0.07L36.55,45l0.17,2.28h0.15c4.68,0,10,2,15.13,5.61l0.06-.09,0.06,0.09c5.09-3.62,10.46-5.61,15.13-5.61h0.32l-0.13-4.55h0.07c-1.1-.33-4.81-3.66-5.15-6.91-0.07-.66-0.28-2.69,3.08-4.53a5.54,5.54,0,0,1,5.33,0c3.57,1.72,7,6.56,7.74,11L78.65,43c0.63,3.46,1.57,8.68-2.43,16.66A11,11,0,0,1,68.12,66a5.46,5.46,0,0,1-4.93-1.46A6.62,6.62,0,0,1,61.5,58a6.9,6.9,0,0,1,4-2.78,7.81,7.81,0,0,1,2.14-.44l0-4.57a13.63,13.63,0,0,0-3.63.69,11.36,11.36,0,0,0-6.47,4.81c-2.47,4.21-3,7.54-3,17.82h4.57c0-2.76,0-4.92.15-6.7,0.19,0.25.36,0.51,0.58,0.75a9.58,9.58,0,0,0,7.27,3,12.38,12.38,0,0,0,1.66-.11,15.58,15.58,0,0,0,11.58-8.8C85,52.36,83.83,46,83.14,42.18Z"/></svg>