<svg id="Слой_1" data-name="Слой 1" xmlns="http://www.w3.org/2000/svg" viewBox="0 0 100 100"><defs><style>.cls-1{fill:#7eccd8;}</style></defs><title>1</title><path class="cls-1" d="M69.92,48c-3.59-2.86-8.17-4.11-13.63-3.77-3.15-5.8-8.65-9.66-13.81-12.15a10.62,10.62,0,0,1,9.57-2.71c4.68,0.89,9,4.41,10.08,8.17l4.39-1.24C65,30.87,59.28,26.06,52.91,24.85A15.12,15.12,0,0,0,38,30.16a53,53,0,0,0-6.47-1.92l-1,4.46a48.71,48.71,0,0,1,9,3c-3.84,4.57-5.36,10.28-3.9,15.16s5.6,8.3,11.71,9.79l1.08-4.44c-4.54-1.1-7.44-3.41-8.42-6.66C39,46,40.4,41.44,43.63,38l-0.48-.45c4,2.33,7.84,5.62,9.8,10.18,2.83,6.57,1.36,14.79-4.38,24.44l3.93,2.34c5.79-9.73,7.66-18.38,5.61-25.79A14.18,14.18,0,0,1,67,51.52C72.2,55.6,72.72,62.91,72.72,63L75,62.85l2.28-.13C77.26,62.34,76.67,53.35,69.92,48Z"/></svg>