<svg id="Слой_1" data-name="Слой 1" xmlns="http://www.w3.org/2000/svg" viewBox="0 0 100 100"><defs><style>.cls-1{fill:#7eccd8;}</style></defs><title>1</title><path class="cls-1" d="M39.65,29.76v27.3H55.26V67.63a5.79,5.79,0,1,1-11.58,0,10.37,10.37,0,0,0-8.45-10.17,6.44,6.44,0,0,0-6.07-4.36h-5.6a6.45,6.45,0,1,0,0,12.9h5.6a6.46,6.46,0,0,0,5.9-3.87,5.78,5.78,0,0,1,4.05,5.49,10.36,10.36,0,1,0,20.72,0V57.06H75.44V29.76H39.65ZM29.15,61.44h-5.6a1.88,1.88,0,1,1,0-3.76h5.6A1.88,1.88,0,1,1,29.15,61.44Zm41.72-9H44.22V34.33H70.87V52.49ZM68.75,37H46.34V49.83H68.75V37Zm-4.57,8.27H50.91v-3.7H64.18v3.7Z"/></svg>